<?xml version="1.0" encoding="UTF-8"?>
<svg id="katman_1" xmlns="http://www.w3.org/2000/svg" width="350" height="350" version="1.1" viewBox="0 0 350 350">
  <!-- Generator: Adobe Illustrator 29.6.1, SVG Export Plug-In . SVG Version: 2.1.1 Build 9)  -->
  <defs>
    <style>
      .st0 {
        fill: #ce0e2d;
      }

      .st1 {
        fill: #fff;
      }
    </style>
  </defs>
  <g>
    <circle class="st0" cx="175" cy="175" r="90.89"/>
    <path class="st1" d="M227.68,188.14c0,29.1-23.59,52.68-52.68,52.68-29.1,0-52.68-23.59-52.68-52.68,0-18.74,9.79-35.2,24.54-44.54-8.59,7.72-14,18.91-14,31.37,0,23.28,18.87,42.15,42.15,42.15s42.15-18.87,42.15-42.15c0-12.46-5.41-23.65-14-31.37,14.75,9.34,24.54,25.79,24.54,44.54ZM169.21,128.39l5.81,17.99,5.81-17.99,18.9.04-15.32-11.08,5.88-17.97-15.27,11.14-15.27-11.14,5.88,17.97-15.32,11.08,18.9-.04Z"/>
  </g>
  <path class="st0" d="M301.09,104.72l12.84-7.08.59,1.06-12.84,7.09-.59-1.06ZM306.14,112.96c-.28.67-.27,1.48.12,2.35.68,1.48,2.26,2.32,4.27,1.41l4.22-1.92-1.26-2.78-.94.43.76,1.67-3.28,1.5c-1.27.58-2.32.22-2.77-.75-.24-.52-.23-1-.05-1.4.39-.84,1.14-1.29,5.06-3.08,3.92-1.79,4.75-2.05,5.63-1.8.42.13.79.43,1.03.96.62,1.35-.39,2.19-1.45,2.68l.5,1.11c1.01-.48,1.76-1.12,2.1-1.95.24-.66.24-1.42-.16-2.28-.39-.86-1-1.4-1.69-1.63-1.23-.41-2.23-.12-6.47,1.81-4.24,1.93-5.12,2.49-5.61,3.69ZM316.99,167.12c-.14.17-.3.3-.48.39-.18.09-.36.15-.56.19l.07,1.05c1.85-.41,2.7-1.53,2.58-3.36-.12-1.82-1.13-2.82-3.01-2.98l.07,1.05c.19.01.39.05.58.12.19.06.37.17.53.33.16.15.3.36.4.61.11.26.17.58.2.96.03.38,0,.71-.07.98-.07.27-.18.49-.32.66ZM323.45,109.98l-.39-.86c-.79.25-1.36,0-1.67-.69-.32-.71-.14-1.3.57-1.73l-.39-.86c-1.26.71-1.58,1.69-1,2.97.57,1.26,1.53,1.66,2.89,1.18ZM321.99,134.71c-1.5,0-2.72,1.22-2.72,2.72s1.22,2.72,2.72,2.72,2.72-1.22,2.72-2.72-1.22-2.72-2.72-2.72ZM318.34,155.34l14.52-2.12-.31-2.08-14.52,2.12.3,2.08ZM310.79,125.99l13.77-5.04-.42-1.14-13.77,5.04.42,1.14ZM330.32,161.07l-4.61.31.26,3.76,1.85-.13-.11-1.66,2.75-.19c.51-.03.89.08,1.15.35.26.27.4.59.43.97.03.38-.07.72-.29,1.02-.22.3-.59.46-1.09.5l-7.73.53c-.51.04-.89-.08-1.15-.35-.26-.26-.4-.59-.43-.97-.03-.38.07-.72.29-1.02.22-.3.58-.46,1.09-.5l.74-.05-.14-2.1-.74.05c-.59.04-1.1.18-1.54.41-.44.24-.8.53-1.08.88-.26.36-.46.76-.58,1.18-.12.43-.17.86-.14,1.28.03.42.13.84.31,1.25.18.41.42.77.73,1.08.33.32.72.57,1.19.74.47.18.99.24,1.58.2l7.73-.53c.62-.04,1.14-.18,1.56-.42.43-.23.77-.53,1.03-.9.28-.35.48-.74.6-1.17.12-.43.17-.85.14-1.28-.03-.42-.13-.84-.31-1.25-.18-.41-.43-.77-.76-1.1-.31-.31-.69-.55-1.14-.73-.45-.18-.99-.24-1.6-.2ZM208.83,19.58l-1.19-.26-3.08,14.35,1.19.26,3.08-14.35ZM209.46,16.87l-1.27-.27-.27,1.27,1.27.27.28-1.27ZM192.19,31.62l-1.21-.16,1.94-14.54,2.86.38c1.76.23,3.06,1.05,2.61,4.44-.3,2.25-1.06,3.25-2.3,3.54l1.37,7.04-1.29-.17-1.23-6.79-1.88-.25-.87,6.51ZM193.21,24.02l1.69.22c1.47.2,2.04-.79,2.29-2.66.25-1.88-.03-3-1.5-3.19l-1.7-.23-.78,5.86ZM297.72,98.93l.92-.59-2.12-3.27,11.4-7.38-.66-1.02-12.31,7.97,2.78,4.29ZM217.95,36l-4-1.16,7.51-10.98.26-.91-4.95-1.43-.3,1.05,3.74,1.08-7.53,10.97-.27.91,5.23,1.51.3-1.05ZM180.57,30.86c.82.03,1.6-.23,2.2-.76.56-.51.92-1.3.96-2.33l.45-11.62-1.22-.05-.45,11.72c-.05,1.26-.88,1.99-1.89,1.95-1.01-.04-1.8-.83-1.75-2.09l.46-11.72-1.22-.05-.45,11.62c-.04,1.03.28,1.84.79,2.4.56.58,1.31.9,2.13.93ZM249.12,51.08l-2.24-1.34,7.54-12.58,2.26,1.36c1.02.61,1.51,1.17,1.69,2,.19.88,0,1.61-.8,2.93-.54.9-1.12,1.59-2.15,1.86-.39.1-.78.11-1.09.02.28.29.49.63.59,1.02.28,1.1-.16,2.04-.77,3.05-.94,1.57-1.53,2.04-2.42,2.27-.8.21-1.56.05-2.61-.58ZM252.1,43.38l1.24.74c1.13.68,2.16.4,3.17-1.27,1.09-1.82.78-2.7-.37-3.39l-1.24-.74-2.8,4.66ZM248.48,49.42l1.24.74c1.2.72,2.2.57,3.41-1.44,1.1-1.84.87-2.96-.34-3.68l-1.24-.74-3.08,5.12ZM277.22,72.94l12.91-7.7.78.82-8.45,12.42-.89-.94,2.37-3.34-2.35-2.48-3.46,2.19-.91-.96ZM282.54,71.14l2.02,2.14,4.34-6.15-6.37,4.01ZM287.28,84.22l9.01-7.06-6.48,10.29.74.94,11.55-9.05-.75-.96-9.01,7.06,6.49-10.27-.75-.96-11.55,9.05.75.96ZM269.09,65.44l2.94-3.34,2.92-1.17-2.65,7.32.99.87,3.13-8.71,6.25-2.57-.98-.85-8.18,3.42,5.26-5.99-.91-.8-9.68,11.02.91.8ZM257.11,56.16l11.31-9.92.91.67-6.06,13.75-1.05-.77,1.72-3.72-2.76-2.02-3,2.78-1.06-.78ZM262.03,53.41l2.38,1.74,3.15-6.83-5.53,5.1ZM229.49,28.88l-.3,7.94.82.33,5.33-6.22-4.33,10.98,1.13.45,5.38-13.64-1.13-.45-6.06,6.89.29-9.16-1.13-.45-5.38,13.64,1.13.45,4.24-10.75ZM209.46,328.41l-.97-4.2,3.53-.81-.44-1.93-3.53.81-.97-4.2,4.05-.93-.44-1.93-6.1,1.4,3.29,14.3,6.11-1.41-.47-2.05-4.06.93ZM144.21,318.45l2.39.46-2.38,12.47,2.06.39,2.38-12.47,2.39.46.37-1.95-6.84-1.3-.37,1.95ZM137.23,314.67l-2.03-.54-3.77,14.18,6.06,1.61.54-2.03-4.02-1.07,3.23-12.15ZM109.55,311.48h-.04s2.85-6.07,2.85-6.07l-1.9-.9-6.24,13.28,1.9.89,1.87-3.97,1.93-1.44-.61,6.91,2.01.95.67-9.41,5.09-4.1-1.9-.9-5.63,4.75ZM123.21,321.99c-.18.49-.43.81-.74.96-.32.15-.65.16-1,.03-.35-.13-.6-.35-.74-.66-.15-.32-.13-.72.05-1.21l3.81-10.5-1.98-.72-3.88,10.69c-.16.45-.23.9-.2,1.34.03.44.14.86.33,1.27.19.41.44.76.76,1.06.32.31.7.54,1.14.7.44.16.88.22,1.33.2.45-.03.88-.13,1.28-.32.41-.19.76-.44,1.06-.77.3-.32.53-.71.7-1.16l3.88-10.69-1.97-.72-3.81,10.5ZM196.46,328.43h-.04s-3.08-9.9-3.08-9.9l-2.21.31,5.01,14.11,1.84-.26.93-14.95-2.2.31-.24,10.38ZM175.26,327.69l2.2,6.72-2.23-.02-1.89-6.28h-1.26s-.06,6.25-.06,6.25l-2.1-.02.15-14.67,3.38.03c2.47.02,3.69,1.47,3.67,4.34-.01.86-.15,1.6-.42,2.2-.28.6-.75,1.08-1.43,1.45ZM175,323.98c0-.37-.01-.7-.05-.98-.04-.28-.12-.53-.24-.73-.26-.39-.75-.59-1.48-.59h-1.09s-.05,4.56-.05,4.56h1.2c.37.02.67-.03.89-.13.22-.1.39-.25.52-.44.11-.19.19-.43.23-.71.04-.28.07-.61.07-.98ZM160.36,330.19c-.05.52-.21.89-.49,1.11-.27.22-.59.31-.96.27-.37-.04-.66-.19-.88-.46-.22-.27-.3-.67-.25-1.19l1.14-11.11-2.09-.21-1.17,11.31c-.05.48,0,.93.13,1.35.14.42.35.81.63,1.15.28.35.61.63,1,.85.39.22.81.35,1.27.4.46.05.91,0,1.34-.13.43-.14.82-.34,1.16-.63.35-.28.63-.62.84-1,.21-.39.34-.82.39-1.3l1.17-11.31-2.09-.22-1.15,11.11ZM126.8,310.45l1.74.63.72-1.98-1.74-.63-.72,1.98ZM48.84,261.56l1.65-1.09-1.99-3.03,3.6-2.37,2.29,3.48,1.65-1.09-3.44-5.23-12.26,8.07,3.44,5.23,1.76-1.15-2.29-3.48,3.6-2.37,1.99,3.03ZM96.13,295.19l1.56,1.01,1.14-1.76-1.56-1.01-1.14,1.76ZM62.71,266.29l-7.15,1.76-.03-.03,5.25-4.16-1.31-1.65-11.49,9.12,1.31,1.65,3.44-2.73,2.37-.43-3.62,5.92,1.38,1.74,4.78-8.13,6.38-1.4-1.31-1.65ZM40.57,251.33l-.73.39c-1.14.61-2.16.81-3.06.58-.9-.22-1.68-.94-2.33-2.15l-1.36-2.52,12.92-6.95,1.45,2.7c.32.59.5,1.15.54,1.66.04.52-.01.99-.17,1.42-.16.43-.4.81-.74,1.13-.33.33-.71.6-1.13.83l-.47.25c-.35.19-.66.32-.93.4-.27.08-.53.11-.77.1-.45-.03-.91-.18-1.38-.48.03.55-.1,1.03-.39,1.45-.29.42-.78.82-1.47,1.19ZM41.72,245.38l.45.84c.33.62.71.95,1.13.99.42.05.93-.09,1.52-.41.58-.31.95-.66,1.12-1.05.16-.39.08-.9-.25-1.51l-.41-.76-3.55,1.91ZM40.24,249.19c.22-.16.39-.35.5-.55.1-.21.14-.44.11-.69-.03-.25-.14-.54-.32-.88l-.44-.82-4.14,2.23.43.8c.2.37.41.64.64.79.22.15.46.23.71.24.25,0,.52-.05.8-.17.28-.12.58-.26.89-.43.33-.17.6-.35.82-.51ZM87.57,308.21l1.76,1.14,7.97-12.32-1.77-1.14-7.96,12.32ZM78.21,282.54l-7.45,13.06-1.55-1.41,1.66-2.75-2.12-1.93-2.58,1.92-1.55-1.41,12.29-8.65,1.29,1.18ZM74.73,285.09l-.03-.03-4.34,3.24,1.56,1.41,2.81-4.63ZM70.61,278.08l1.44-1.36-4.78-5.06-1.44,1.36,1.67,1.77-9.23,8.71,1.44,1.53,9.23-8.71,1.67,1.77ZM300.01,247.8l14.3,4.64-1.07,1.81-3.03-1.07-1.46,2.47,2.4,2.13-1.07,1.81-10.97-10.28.89-1.51ZM303.19,250.73l4.05,3.59,1.07-1.81-5.1-1.82-.02.03ZM314.93,211.8l15.02.67-.55,2.03-3.2-.23-.75,2.76,2.88,1.42-.55,2.03-13.31-6.99.46-1.69ZM318.78,213.78l4.86,2.38.55-2.03-5.4-.39v.04ZM317.85,198.13l8.71,1.51v.04s-9.26,1.61-9.26,1.61l-.35,1.99,14.45,2.51.36-2.07-8.69-1.51v-.04s9.25-1.66,9.25-1.66l.34-1.95-14.45-2.51-.36,2.07ZM312.08,221.43l-.73,1.97,5.22,5.21v.04s-6.29-2.32-6.29-2.32l-.73,1.97,13.76,5.09.73-1.97-4.11-1.52-1.6-1.8,6.94.02.77-2.09-9.43.13-4.51-4.72ZM322.31,242.63c-.15-.07-.32-.12-.5-.15-.18-.03-.38-.01-.59.04-.2.06-.38.17-.57.32-.18.16-.35.39-.49.7-.05.1-.09.2-.13.29-.04.1-.07.2-.11.3l-.68-1.3c.14-.46.2-.89.17-1.29-.03-.39-.14-.77-.33-1.11-.22-.41-.54-.78-.96-1.12-.42-.34-.92-.64-1.47-.91-.48-.23-.93-.41-1.33-.54-.4-.13-.78-.2-1.15-.21-.36.01-.7.1-1.05.26-.34.16-.69.41-1.05.75l-1.27,1.18c-.22.2-.41.35-.58.44-.17.1-.34.15-.51.16-.17,0-.35-.02-.53-.08-.18-.06-.4-.16-.66-.28-.22-.11-.43-.23-.61-.36-.19-.13-.34-.29-.45-.47-.1-.17-.16-.36-.19-.57-.02-.21.03-.44.15-.7.23-.48.55-.75.97-.81.41-.05.84.02,1.27.23l.43.2.9-1.9-.93-.44c-.77-.36-1.59-.4-2.45-.12-.42.15-.81.38-1.17.68-.36.31-.65.7-.88,1.17-.27.56-.4,1.09-.4,1.58,0,.5.1.95.3,1.36.19.43.48.82.86,1.16.38.35.82.64,1.32.88.83.4,1.59.59,2.27.57.69-.02,1.39-.35,2.11-1.01l1.21-1.09c.21-.19.39-.33.55-.44.16-.1.32-.16.5-.18.17,0,.38.03.61.11.23.08.53.21.87.37.3.14.56.28.8.41.23.13.41.29.54.47.13.18.19.38.2.61,0,.22-.06.5-.22.82-.23.48-.53.76-.91.83-.38.07-.74.03-1.09-.14l-.6-.28-.9,1.9.71.34c.45.21.9.33,1.36.34.46.01.9-.06,1.32-.21.39-.14.74-.35,1.07-.63.33-.29.6-.63.82-1.03l.97,1.83.52-.14c.01-.25.09-.51.21-.79.1-.21.26-.37.47-.48.21-.11.42-.12.64-.02.29.14.43.35.45.65.01.13,0,.26-.04.38-.04.13-.08.24-.13.34-.1.21-.23.4-.38.57-.15.17-.31.34-.48.5l.63.69c.15-.14.34-.35.57-.62.23-.27.44-.58.61-.94.13-.26.22-.54.29-.83.07-.3.08-.59.05-.88-.03-.29-.12-.55-.27-.8-.15-.25-.37-.44-.67-.58ZM350,175c0,96.5-78.5,175-175,175S0,271.5,0,175,78.5,0,175,0s175,78.5,175,175ZM348.64,175C348.64,79.25,270.75,1.36,175,1.36S1.36,79.25,1.36,175s77.9,173.65,173.64,173.65,173.64-77.9,173.64-173.65ZM331.68,188.66l-12.53-1.03-.17,2.09,14.62,1.21.51-6.24-2.09-.17-.34,4.15ZM319.71,175.35l-.02,2.1,14.67.14.02-2.1-14.67-.13ZM273.59,280.93l5.65,8.71-.03.03-8.13-6.45-1.65,1.5,12.09,8.84,1.37-1.25-7.65-12.87-1.65,1.5ZM253.46,296.62l1.81,8.01-.04.02-6.38-5.19-1.72,1.06,7.72,12.48,1.79-1.11-4.69-7.59.04-.02,5.07,4.28.89-.55-1.55-6.46.03-.02,4.69,7.59,1.79-1.11-7.72-12.48-1.74,1.07ZM269.74,300.53l-2.61-3.42,2.88-2.2-1.2-1.57-2.88,2.2-2.61-3.43,3.31-2.52-1.2-1.57-4.98,3.8,8.89,11.67,4.98-3.8-1.28-1.67-3.31,2.52ZM243.81,316.41l-1.9-3.87,3.25-1.6-.87-1.77-3.25,1.6-1.9-3.87,3.74-1.83-.87-1.78-5.62,2.76,6.46,13.17,5.62-2.76-.93-1.89-3.74,1.84ZM279.38,275.2l10.67,10.07,1.44-1.53-10.67-10.07-1.44,1.53ZM305.07,265.27c.19.91-.11,1.92-.91,3.04l-1.67,2.33-11.93-8.54,1.79-2.5c.39-.55.81-.95,1.25-1.22.44-.26.89-.42,1.35-.47.45-.05.9,0,1.34.16.44.15.85.37,1.24.65l.43.31c.32.23.58.45.77.66.19.21.33.43.42.65.18.42.24.9.18,1.45.48-.27.97-.36,1.47-.29.5.07,1.07.34,1.71.79l.67.48c1.05.75,1.67,1.58,1.87,2.49ZM297.63,261.66c-.15-.4-.49-.79-1.04-1.19-.54-.38-1.02-.56-1.44-.54-.42.03-.84.32-1.25.89l-.5.7,3.28,2.35.55-.77c.41-.57.54-1.06.4-1.46ZM302.97,266.05c.04-.27,0-.52-.1-.75-.11-.23-.27-.44-.5-.64-.23-.2-.49-.4-.78-.61-.3-.21-.58-.39-.82-.51-.25-.13-.48-.2-.71-.21-.23,0-.46.07-.67.21-.21.14-.42.36-.65.68l-.54.75,3.82,2.74.53-.74c.25-.35.39-.65.43-.92ZM234.47,318.36l-1.96.76.26.67c.1.27.15.51.14.72,0,.21-.05.39-.12.53-.09.15-.2.28-.33.38-.13.1-.26.18-.39.23-.45.17-.81.16-1.09-.04-.28-.2-.49-.5-.65-.9l-2.71-6.99c-.18-.46-.25-.87-.2-1.24.04-.36.31-.64.8-.83.37-.14.72-.12,1.05.08.33.2.56.49.71.87l.25.65,1.96-.76-.3-.77c-.18-.47-.43-.88-.75-1.22-.32-.34-.67-.61-1.07-.79-.81-.38-1.68-.39-2.6-.03-.47.18-.88.43-1.2.74-.33.31-.58.66-.75,1.05-.17.39-.26.81-.27,1.25,0,.44.08.89.25,1.34l2.92,7.53c.24.63.54,1.11.9,1.43.36.33.74.56,1.14.7.41.14.82.18,1.25.14.42-.05.82-.14,1.19-.28.43-.17.81-.42,1.12-.73.31-.32.55-.68.72-1.08.17-.4.26-.82.27-1.27.01-.44-.06-.87-.23-1.29l-.33-.85ZM28.44,224.56l2.1,5.84,1.98-.71-2.1-5.84-1.98.71ZM86.12,294.47l1.67,1.27.62-.82c.51-.68.72-1.47.62-2.38-.06-.44-.21-.87-.44-1.29-.23-.41-.55-.78-.97-1.1-.49-.37-.98-.61-1.46-.71-.49-.1-.95-.1-1.4.01-.46.1-.9.31-1.31.61-.42.31-.8.67-1.13,1.11-.56.73-.9,1.44-1.02,2.11-.12.67.06,1.43.56,2.28l.82,1.4c.14.25.25.45.32.63.07.17.09.35.08.53-.03.17-.1.36-.23.58-.13.21-.31.47-.54.78-.2.26-.39.49-.57.69-.18.2-.37.35-.57.43-.2.09-.42.11-.64.07-.22-.04-.47-.17-.76-.38-.43-.32-.64-.67-.63-1.06,0-.38.13-.73.36-1.03l.4-.52-1.68-1.27-.47.62c-.3.39-.5.81-.61,1.26-.11.45-.13.89-.07,1.33.06.4.19.79.4,1.17.21.38.49.71.84,1.01l-1.99.58.03.54c.24.06.49.19.73.37.19.14.31.33.38.56.06.23.03.44-.11.63-.19.25-.43.35-.72.31-.13-.01-.25-.05-.37-.11-.12-.06-.22-.13-.31-.19-.19-.14-.35-.3-.49-.49-.14-.18-.27-.37-.39-.57l-.8.48c.11.17.27.4.49.68.22.28.48.55.8.79.23.17.48.32.76.45.28.12.56.2.85.23.29.03.57,0,.84-.1.27-.1.51-.28.71-.54.1-.13.18-.29.25-.46.06-.18.09-.37.08-.58-.02-.2-.09-.41-.2-.62-.12-.21-.31-.42-.59-.63-.09-.07-.17-.13-.26-.18-.09-.06-.18-.11-.27-.17l1.42-.4c.42.24.83.38,1.23.43.39.05.78.02,1.16-.09.44-.13.87-.37,1.29-.71.42-.35.81-.77,1.19-1.26.32-.43.59-.82.8-1.19.21-.37.35-.73.43-1.08.06-.35.05-.71-.04-1.08-.09-.37-.26-.76-.52-1.19l-.89-1.48c-.15-.25-.26-.47-.32-.65-.06-.18-.08-.36-.05-.53.03-.17.09-.34.19-.5.1-.17.24-.36.41-.59.15-.2.31-.37.48-.53.17-.15.35-.27.55-.35.19-.06.38-.09.59-.07s.43.12.66.29c.43.32.62.69.59,1.11-.03.42-.19.82-.48,1.2l-.29.38ZM83.73,46.07l7.8,11.12.99-.7-7.8-11.12,2.01-1.41-.63-.89-5.01,3.51.63.9,2.01-1.41ZM162.89,318.31l.22-2.09-1.84-.19-.22,2.09,1.84.19ZM93.92,36.45l-.65-1.12-1.12.65.65,1.12,1.13-.65ZM85.76,61.44l-.69-.84-3.01,2.47-8.61-10.5-.94.77,9.3,11.35,3.95-3.24ZM96.37,35.02l-.65-1.12-1.12.65.65,1.12,1.12-.65ZM64.24,58.73l-.91-.93-.93.91.91.93.93-.91ZM73.39,71.09c-.72.71-1.85.74-2.72-.16l-8.19-8.39-.87.85,8.12,8.32c.72.74,1.53,1.07,2.29,1.08.8,0,1.55-.33,2.14-.91.59-.58.94-1.31.96-2.12,0-.76-.32-1.56-1.04-2.3l-8.12-8.32-.87.85,8.19,8.39c.88.9.84,2.01.11,2.71ZM149.89,32.77l-.21-1.07-3.82.75-1.11-5.6,3.3-.65-.21-1.07-3.29.65-1.1-5.58,3.82-.75-.21-1.07-5.01.99,2.85,14.39,5.01-.99ZM62.21,60.72l-.91-.93-.93.91.91.93.93-.91ZM166.69,17.24l.66,13.55,1.21-.06-.66-13.55,2.45-.12-.05-1.09-6.11.3.05,1.09,2.45-.12ZM125.41,309.95l.72-1.97-1.74-.63-.72,1.98,1.74.63ZM135.74,36.05l-1.06-14.96-1.29.37,1.17,12.66-5.76-11.33-1.29.37,7.08,13.23,1.15-.33ZM102.2,49.25c-.88.51-1.97.26-2.6-.83l-5.88-10.15-1.05.61,5.82,10.06c.52.89,1.22,1.41,1.96,1.61.78.19,1.58.06,2.3-.35.71-.41,1.23-1.05,1.45-1.82.19-.73.08-1.59-.44-2.48l-5.82-10.06-1.05.61,5.87,10.15c.63,1.09.32,2.15-.56,2.66ZM111.92,45.1l-6.13-13.33,2.62-1.21c1.61-.74,3.15-.74,4.58,2.36.95,2.06.84,3.31-.05,4.22l4.92,5.22-1.18.54-4.68-5.09-1.72.79,2.75,5.97-1.11.51ZM109.82,37.63l1.55-.71c1.35-.62,1.3-1.76.51-3.48-.79-1.72-1.63-2.52-2.98-1.9l-1.55.72,2.47,5.37ZM25.15,137.43c0,1.5,1.22,2.72,2.72,2.72s2.72-1.22,2.72-2.72-1.22-2.72-2.72-2.72-2.72,1.22-2.72,2.72ZM17.83,169.12l12.56.41.07-2.1-14.66-.48-.2,6.26,2.1.07.13-4.16ZM31.22,158.62l-14.96,1.5.25-2.09,3.2-.24.34-2.84-3.05-.99.25-2.09,14.17,5.01-.21,1.74ZM27.14,157.22l-5.16-1.66-.25,2.09,5.4-.39v-.04ZM159.57,317.97l.21-2.09-1.84-.19-.21,2.09,1.84.19ZM33.39,204.58l-14.34,3.12.45,2.05,14.34-3.12-.45-2.05ZM31.93,196.57l-10.38-.25v-.04s9.9-3.07,9.9-3.07l-.31-2.2-14.11,5,.26,1.84,14.95.95-.31-2.21ZM278.81,274.49l1.27-1.35-1.53-1.44-1.27,1.35,1.53,1.44ZM17.91,182.37l4.3-.23.19,3.62,1.98-.1-.19-3.62,4.3-.22.22,4.16,1.97-.1-.33-6.26-14.65.77.33,6.26,2.1-.11-.22-4.16ZM26.3,121.73l12.76,4.63.41-1.14-12.76-4.63.84-2.31-1.03-.37-2.09,5.75,1.03.37.84-2.3ZM39.75,106.16c4.11,2.19,5.09,2.55,6.34,2.21.71-.19,1.35-.69,1.79-1.52.41-.76.5-1.46.33-2.11-.22-.89-1-1.68-2.01-2.24l-.57,1.07c.64.34,1.24.82,1.44,1.42.13.37.12.83-.15,1.34-.27.51-.66.8-1.09.89-.9.2-1.71-.12-5.51-2.14-3.8-2.03-4.52-2.52-4.86-3.38-.16-.41-.14-.89.14-1.4.27-.51.62-.77,1.03-.88.6-.17,1.32.05,1.98.4l.57-1.07c-.99-.51-2-.72-2.87-.45-.67.2-1.23.65-1.68,1.49-.45.84-.5,1.65-.26,2.34.42,1.23,1.26,1.84,5.37,4.03ZM42.51,117.61l.62-1.42-1.42-.62-.62,1.41,1.42.62ZM53.57,96.85l-1.31-.83-.83,1.3,1.31.83.83-1.31ZM34.69,206.32l2.05-.45-.39-1.81-2.06.45.4,1.81ZM63.96,82.66l-3.39-2.89-1.21-2.9,7.37,2.54.86-1-8.77-3-2.66-6.22-.84.99,3.55,8.14-6.07-5.17-.79.93,11.17,9.51.79-.93ZM164.76,65.32c.14,2.91-1.47,3.95-2.47,4.31,1.11-.28,3.53-.62,4.87,1.34,1.28,1.87-.79,4.69-1.05,5.03.36-.48,2.83-3.54,5.29-1.99,1.78.98,1.82,3.5,1.74,4.67.18-1.27.85-4.09,3.22-3.95,3.05.17,4.33,3.6,4.33,3.6,0,0-1.5-3.77.7-5.47,1.79-1.66,5.45.76,5.45.76,0,0-3.37-2.42-1.87-5.46,1.2-2.59,4.55-1.78,4.82-1.71-.46-.11-3.97-1.04-4.12-3.4-.2-3.19,3.28-4.32,3.28-4.32,0,0-3.62,1.4-5.53-1.1-1.4-1.82.11-4.21.76-5.09-.68.8-2.61,2.67-5.18,1.8-2.23-.9-1.99-3.33-1.72-4.52-.38,1.24-1.33,3.76-2.79,3.88-3.26.56-4.52-3.5-4.52-3.5,0,0,1.26,3.6-.65,5.32-1.41,1.72-4.7-.16-5.53-.67.69.46,3,2.27,1.85,5.05-.97,2.36-3.71,2.18-4.67,2.04.93.17,3.47.86,3.8,3.37ZM82.99,82.99c24.58-24.58,57.25-38.11,92.01-38.11s67.43,13.53,92.01,38.11c19.38,19.37,31.85,43.79,36.28,70.29l.14-.02.07.42-.13.02c1.14,6.98,1.76,14.09,1.76,21.3s-.65,14.74-1.87,21.92l.24.04-.07.42-.24-.04c-1.07,6.23-2.59,12.35-4.55,18.31h.03s-.13.42-.13.42h-.03c-1.84,5.55-4.05,10.97-6.63,16.22h0s-.19.39-.19.39h0c-6.22,12.54-14.48,24.15-24.67,34.34-24.58,24.58-57.25,38.11-92.01,38.11s-67.43-13.54-92.01-38.11c-24.58-24.58-38.11-57.25-38.11-92.01s13.53-67.43,38.11-92.01ZM67.81,103.58l30.09,20.04c2.16-3.23,4.56-6.32,7.14-9.28l-27.22-23.77c-3.62,4.16-6.98,8.49-10.01,13.01ZM84.11,175c0,50.11,40.77,90.89,90.89,90.89s90.89-40.77,90.89-90.89-40.77-90.89-90.89-90.89-90.89,40.77-90.89,90.89ZM59.29,118.42l32.47,15.89c1.74-3.56,3.71-7.01,5.91-10.34l-30.09-20.04c-3.09,4.65-5.85,9.5-8.29,14.48ZM52.57,135.01l34.35,11.25c1.29-3.96,2.83-7.83,4.65-11.57l-32.47-15.89c-2.55,5.25-4.72,10.66-6.53,16.21ZM48.02,153.67l35.63,6.04c.73-4.44,1.78-8.79,3.14-13.04l-34.36-11.25c-1.91,5.94-3.39,12.04-4.42,18.26ZM48.05,196.53l35.65-6.04c-.85-5.04-1.32-10.21-1.32-15.49s.42-10,1.2-14.87l-35.63-6.04c-1.11,6.85-1.71,13.83-1.71,20.91s.64,14.48,1.82,21.53ZM52.63,215.16l34.39-11.26c-1.38-4.2-2.47-8.54-3.24-12.99l-35.65,6.04c1.06,6.2,2.57,12.28,4.5,18.21ZM59.36,231.71l32.52-15.91c-1.82-3.7-3.4-7.54-4.72-11.5l-34.39,11.27c1.83,5.53,4.03,10.92,6.59,16.14ZM67.87,246.51l30.14-20.07c-2.2-3.28-4.18-6.7-5.95-10.26l-32.52,15.91c2.46,4.96,5.22,9.79,8.32,14.42ZM78.14,259.8l27.26-23.8c-2.56-2.92-4.96-5.98-7.14-9.21l-30.13,20.06c3.04,4.5,6.39,8.81,10.02,12.94ZM90.14,271.81l23.89-27.17c-2.96-2.59-5.75-5.36-8.35-8.31l-27.26,23.8c1.78,2.02,3.61,4.01,5.53,5.93,2,2,4.08,3.9,6.19,5.76ZM103.17,281.9l20.24-30.02c-3.17-2.13-6.18-4.47-9.06-6.97l-23.89,27.17c4.06,3.55,8.3,6.84,12.71,9.82ZM118.24,290.62l16.01-32.47c-3.63-1.79-7.13-3.81-10.48-6.04l-20.25,30.03c4.73,3.17,9.65,5.98,14.73,8.47ZM134.97,297.41l11.3-34.38c-4.01-1.31-7.9-2.87-11.65-4.69l-16,32.47c5.29,2.58,10.75,4.78,16.35,6.6ZM154.16,302.06l5.91-35.67c-4.58-.75-9.05-1.83-13.38-3.22l-11.3,34.37c6.11,1.97,12.38,3.48,18.78,4.52ZM195.98,302.04l-5.91-35.67c-4.91.81-9.94,1.25-15.07,1.25s-9.78-.4-14.51-1.15l-5.91,35.66c6.69,1.06,13.51,1.63,20.42,1.63s14.11-.6,20.98-1.72ZM215.1,297.39l-11.3-34.38c-4.31,1.41-8.75,2.51-13.3,3.28l5.91,35.67c6.37-1.06,12.61-2.59,18.7-4.58ZM231.76,290.62l-16.01-32.47c-3.72,1.83-7.58,3.41-11.56,4.73l11.3,34.38c5.57-1.84,11-4.05,16.26-6.64ZM246.77,281.94l-20.24-30.02c-3.32,2.23-6.8,4.24-10.4,6.03l16.01,32.47c5.04-2.5,9.93-5.32,14.63-8.48ZM259.75,271.9l-23.89-27.17c-2.85,2.49-5.84,4.82-8.97,6.95l20.24,30.01c4.38-2.98,8.6-6.25,12.63-9.79ZM271.71,259.97l-27.26-23.8c-2.58,2.93-5.34,5.69-8.27,8.27l23.89,27.17c2.03-1.8,4.04-3.63,5.97-5.57,1.97-1.97,3.84-4.01,5.66-6.08ZM281.94,246.77l-30.13-20.06c-2.16,3.2-4.54,6.25-7.08,9.15l27.25,23.8c3.6-4.11,6.94-8.41,9.95-12.88ZM290.46,232.07l-32.52-15.91c-1.76,3.53-3.72,6.93-5.9,10.18l30.15,20.08c3.08-4.61,5.82-9.41,8.27-14.35ZM297.21,215.63l-34.39-11.27c-1.32,3.93-2.88,7.74-4.69,11.41l32.52,15.91c2.55-5.2,4.74-10.56,6.56-16.06ZM301.84,197.12l-35.65-6.04c-.77,4.41-1.86,8.71-3.24,12.89l34.39,11.27c1.93-5.9,3.44-11.94,4.5-18.11ZM302.02,153.93l-35.64,6.04c.8,4.9,1.24,9.91,1.24,15.04s-.48,10.56-1.35,15.65l35.65,6.04c1.2-7.1,1.85-14.35,1.85-21.69s-.61-14.17-1.74-21.07ZM297.54,135.35l-34.38,11.26c1.35,4.19,2.41,8.51,3.15,12.93l35.65-6.04c-1.03-6.18-2.51-12.24-4.41-18.15ZM290.91,118.82l-32.51,15.91c1.79,3.69,3.32,7.53,4.62,11.48l34.39-11.26c-1.8-5.52-3.96-10.9-6.49-16.12ZM282.48,104.03l-30.15,20.07c2.16,3.28,4.13,6.7,5.87,10.25l32.52-15.91c-2.43-4.96-5.17-9.78-8.24-14.41ZM272.31,90.72l-27.25,23.8c2.53,2.93,4.89,6.01,7.05,9.24l30.15-20.08c-3.01-4.5-6.35-8.82-9.94-12.96ZM260.4,78.66l-23.89,27.17c2.93,2.61,5.69,5.4,8.27,8.36l27.25-23.8c-1.92-2.2-3.89-4.36-5.98-6.44-1.83-1.83-3.73-3.59-5.65-5.3ZM247.42,68.51l-20.24,30.01c3.15,2.15,6.15,4.51,9,7.02l23.89-27.17c-4.04-3.57-8.26-6.86-12.66-9.86ZM232.39,59.7l-16.01,32.47c3.62,1.82,7.11,3.84,10.44,6.1l20.24-30.01c-4.71-3.19-9.61-6.04-14.67-8.56ZM215.69,52.81l-11.3,34.38c4,1.34,7.88,2.94,11.62,4.79l16.01-32.47c-5.28-2.61-10.73-4.85-16.32-6.7ZM196.5,48.05l-5.91,35.67c4.59.78,9.06,1.9,13.39,3.33l11.3-34.38c-6.11-2.01-12.38-3.55-18.78-4.62ZM103.23,68.06l20.21,29.97c3.38-2.28,6.91-4.3,10.54-6.1l-15.98-32.42.38-.19,15.98,32.42c3.79-1.86,7.7-3.44,11.72-4.75l-11.28-34.32.41-.13,11.28,34.32c4.39-1.41,8.89-2.5,13.48-3.25l-5.9-35.62.42-.07,5.9,35.62c4.79-.76,9.67-1.16,14.62-1.16s10.23.45,15.17,1.26l5.91-35.67c-6.91-1.13-13.95-1.74-21.08-1.74-25.95,0-50.72,7.63-71.77,21.82ZM90.14,78.19l23.86,27.14c2.9-2.55,5.93-4.91,9.09-7.05l-20.21-29.97c-4.42,3-8.67,6.31-12.74,9.89ZM83.95,83.95c-2.04,2.04-3.97,4.15-5.85,6.29l27.22,23.77c1.35-1.53,2.73-3.04,4.18-4.5,1.35-1.35,2.75-2.64,4.17-3.9l-23.86-27.14c-2,1.77-3.96,3.58-5.87,5.48ZM74.54,174.1c-.56-3.26,3.5-4.52,3.5-4.52,0,0-3.6,1.26-5.32-.65-1.72-1.41.16-4.7.67-5.53-.46.69-2.27,3-5.05,1.85-2.36-.97-2.18-3.71-2.04-4.67-.17.93-.86,3.47-3.37,3.8-2.91.14-3.95-1.47-4.31-2.47.28,1.11.62,3.53-1.34,4.87-1.87,1.28-4.69-.79-5.03-1.05.48.36,3.54,2.83,1.99,5.29-.98,1.78-3.5,1.82-4.67,1.74,1.27.18,4.09.85,3.95,3.22-.17,3.05-3.6,4.33-3.6,4.33,0,0,3.77-1.5,5.47.7,1.66,1.79-.76,5.45-.76,5.45,0,0,2.42-3.37,5.46-1.87,2.59,1.2,1.78,4.55,1.71,4.82.11-.46,1.04-3.97,3.4-4.12,3.19-.2,4.32,3.28,4.32,3.28,0,0-1.4-3.62,1.1-5.53,1.82-1.4,4.21.11,5.09.76-.8-.68-2.67-2.61-1.8-5.18.9-2.23,3.33-1.99,4.52-1.72-1.24-.38-3.76-1.33-3.88-2.79ZM275.01,175.99c-.17,3.05-3.6,4.33-3.6,4.33,0,0,3.77-1.5,5.47.7,1.66,1.79-.76,5.45-.76,5.45,0,0,2.42-3.37,5.46-1.87,2.59,1.2,1.78,4.55,1.71,4.82.11-.46,1.04-3.97,3.4-4.12,3.19-.2,4.32,3.28,4.32,3.28,0,0-1.4-3.62,1.1-5.53,1.82-1.4,4.21.11,5.09.76-.8-.68-2.67-2.61-1.8-5.18.9-2.23,3.33-1.99,4.52-1.72-1.24-.38-3.76-1.33-3.88-2.79-.56-3.26,3.5-4.52,3.5-4.52,0,0-3.6,1.26-5.32-.65-1.72-1.41.16-4.7.67-5.53-.46.69-2.27,3-5.05,1.85-2.36-.97-2.18-3.71-2.04-4.67-.17.93-.86,3.47-3.37,3.8-2.91.14-3.95-1.47-4.31-2.47.28,1.11.62,3.53-1.34,4.87-1.87,1.28-4.69-.79-5.03-1.05.48.36,3.54,2.83,1.99,5.29-.98,1.78-3.5,1.82-4.67,1.74,1.27.18,4.09.85,3.95,3.22ZM185.52,284.54c-.2-3.19,3.28-4.32,3.28-4.32,0,0-3.62,1.4-5.53-1.1-1.4-1.82.11-4.21.76-5.09-.68.8-2.61,2.67-5.18,1.8-2.23-.9-1.99-3.33-1.72-4.52-.38,1.24-1.33,3.76-2.79,3.88-3.26.56-4.52-3.5-4.52-3.5,0,0,1.26,3.6-.65,5.32-1.42,1.72-4.7-.16-5.53-.67.69.46,3,2.27,1.85,5.05-.97,2.36-3.71,2.18-4.67,2.04.93.17,3.47.86,3.8,3.37.14,2.91-1.47,3.95-2.47,4.31,1.11-.28,3.53-.62,4.87,1.34,1.28,1.87-.79,4.69-1.05,5.03.36-.48,2.83-3.54,5.29-1.99,1.78.98,1.82,3.5,1.74,4.67.18-1.27.85-4.09,3.22-3.95,3.05.17,4.33,3.6,4.33,3.6,0,0-1.5-3.77.7-5.47,1.79-1.66,5.45.76,5.45.76,0,0-3.37-2.42-1.87-5.46,1.2-2.59,4.55-1.78,4.82-1.71-.46-.11-3.97-1.04-4.12-3.4Z"/>
</svg>