<?xml version="1.0" encoding="UTF-8"?>
<svg id="katman_2" data-name="katman 2" xmlns="http://www.w3.org/2000/svg" viewBox="0 0 209.86 209.16">
  <defs>
    <style>
      .cls-1 {
        fill-rule: evenodd;
      }

      .cls-1, .cls-2 {
        fill: #003c56;
      }

      .cls-3 {
        fill: #5e94ad;
      }
    </style>
  </defs>
  <g id="katman_1" data-name="katman 1">
    <g>
      <path class="cls-3" d="M209.86,104.45h-15.2v-1.02c-.36-48.91-40.59-88.71-89.68-88.71S15.68,54.52,15.32,103.43v1.02H0v-1.04c.32-27.69,11.36-53.67,31.12-73.16C50.9,10.74,77.11,0,104.93,0s54.03,10.74,73.81,30.25c19.76,19.49,30.81,45.47,31.11,73.16v1.04Z"/>
      <g>
        <path class="cls-2" d="M80.57,80.74v103.92h-1.49c-2.8-.89-5.53-1.93-8.19-3.09v-100.83h9.68Z"/>
        <path class="cls-1" d="M68.66,81.73v98.83c-2.23-1.05-4.4-2.2-6.52-3.44v-90.8l6.52-4.59Z"/>
        <path class="cls-1" d="M60.36,87.57v88.48c-2.25-1.39-4.42-2.88-6.52-4.46v-79.43l6.52-4.59Z"/>
        <path class="cls-1" d="M51.87,93.55v76.5c-1.56-1.25-3.08-2.56-4.54-3.92v-69.39l4.54-3.2Z"/>
        <path class="cls-1" d="M45.73,97.86l-.03,66.73c-2.99-2.92-5.77-6.06-8.31-9.39v-57.17l.09-.17h8.25Z"/>
        <path class="cls-1" d="M35.22,99.42v52.79c-2.19-3.16-4.18-6.48-5.93-9.93v-39.59l3.28-3.27h2.65Z"/>
        <path class="cls-1" d="M27.12,104.54v33.12c-2.81-6.48-4.82-13.39-5.93-20.59v-10.83l2-1.7h3.93Z"/>
        <path class="cls-1" d="M163.7,72.15v92.95c-3.37,3.23-7,6.18-10.87,8.82v-102.29h10.53l.33.52Z"/>
        <path class="cls-1" d="M173.83,87.75v65.7c-2.46,3.41-5.17,6.63-8.1,9.64v-87.82l8.1,12.48Z"/>
        <path class="cls-1" d="M175.81,150.59v-49.81l6.12.91v37.93c-1.77,3.82-3.82,7.49-6.12,10.97Z"/>
        <path class="cls-1" d="M183.71,135.5v-33.54l6.01.89v1.37c0,11.05-2.13,21.61-6.01,31.28Z"/>
        <path class="cls-2" d="M103.91,37.98v150.69c-7.03-.08-13.84-1.02-20.36-2.71V60.04h3.02v-22.06h7.24v6.62h5.84v-6.62h4.26Z"/>
        <path class="cls-2" d="M125.46,32.57h2.67v7.52h5.73v-7.52h5.43v7.82h4.23v-5.94h5.53s0,141.91,0,141.91c-11.77,7.16-25.42,11.54-40.05,12.22V37.68h4.23v6.92h6.04v-6.32s-1.15-4.42,6.19-5.72Z"/>
      </g>
      <path class="cls-2" d="M81.4,190.44l7.32,1.61-.4,1.78-7.32-1.61.4-1.78ZM.47,112.63l13.6,4.8.79,5-11.44,8.87-.68-4.27,2.03-1.54-1.23-7.79-2.39-.77-.68-4.29ZM11.56,120.38l-5.09-1.68.78,4.91,4.31-3.24ZM4.42,133.88l11.99-4.13,1.27,3.68-8.91,3.07,2.85,8.27-3.08,1.06-4.11-11.95ZM17.61,143.13l2.79-1.48,6.96,13.09-2.78,1.48-2.57-4.83-8.42,4.48-1.83-3.43,8.42-4.47-2.57-4.83ZM17.6,162.94l10.39-7.28,2.23,3.19-10.39,7.28-2.23-3.19ZM22.12,168.95l9.28-8.65,4.11,4.41-1.76,11.63c6.74-6.29,6.76-6.26,6.76-6.26l2.65,2.84-9.28,8.65-4.11-4.41,1.76-11.63c-6.74,6.29-6.76,6.26-6.76,6.26l-2.65-2.85ZM37.42,184.2l7.46-10.26,9.5,6.9c1.45,1.05,2.32,2.04,2.61,2.96.36,1.1.04,2.33-.96,3.7l-2.27,3.12c-1,1.37-2.07,2.06-3.23,2.05-.97,0-2.18-.52-3.62-1.57l-9.5-6.9ZM46.17,178.77l-3.69,5.08,5.59,4.06c.7.51,1.28.73,1.75.66.47-.07.96-.46,1.46-1.15l1.01-1.39c.52-.71.73-1.29.64-1.74-.07-.46-.46-.94-1.17-1.46l-5.59-4.06ZM53.79,196.01l11.43-8.8,4.63,2.06,1.21,14.43-3.95-1.76-.19-2.54-7.2-3.21-1.95,1.59-3.97-1.77ZM66.33,190.93l-4.18,3.36,4.55,2.02-.37-5.38ZM74.65,200.37l.79-3.7c.37-1.74,1.13-2.84,2.28-3.31.94-.4,2.32-.4,4.14-.02l5.72,1.22c2,.43,3.28,1.07,3.85,1.95.44.68.51,1.95.22,3.32l-3.82-.65c.13-.61.02-1.05-.31-1.32-.22-.18-.66-.34-1.31-.48l-4.13-.88c-.98-.21-1.67-.17-2.07.12-.38.29-.68.94-.9,1.96l-.33,1.54c-.22,1.02-.21,1.74.03,2.16.24.42.86.74,1.84.95l4.06.86c1.32.28,2.08-.03,2.28-.93l-4.65-1.37.55-2.57,8.54,1.81-.75,3.53c-.35,1.66-1.07,2.62-2.14,2.9-.8.2-2.39.05-4.79-.46l-4.58-.97c-1.81-.38-3.06-.95-3.78-1.7-.86-.91-1.1-2.23-.74-3.95ZM102.87,209.16l-.88-12.66,11.17-.78c1.44-.1,2.52.02,3.24.35.97.45,1.5,1.33,1.59,2.65.07.99-.06,1.72-.37,2.19-.22.33-.65.61-1.29.85.88.1,1.52.37,1.92.87.35.44.55,1.13.62,2.05.09,1.26-.19,2.17-.84,2.75-.56.5-1.49.79-2.78.88l-12.36.86ZM106.4,203.87l.14,1.98,6.96-.49c.93-.07,1.38-.41,1.33-1.02-.05-.7-.54-1.02-1.47-.95l-6.96.49ZM106.08,199.27l.14,1.97,6.87-.48c.76-.05,1.11-.41,1.07-1.06-.05-.66-.45-.97-1.21-.92l-6.87.48ZM123.26,207.23l-3.07-12.31,13.46-3.36.71,2.86-9.69,2.42.49,1.97,9.18-2.29.64,2.55-9.18,2.29.49,1.97,9.91-2.47.74,2.96-13.69,3.41ZM140.29,202.58l-5.16-11.59,3.55-1.58,3.83,8.61,7.99-3.56,1.33,2.98-11.54,5.14ZM154.14,196.63l-6.72-10.76,11.77-7.35,1.56,2.5-8.47,5.29,1.08,1.72,8.02-5.01,1.39,2.23-8.02,5.01,1.08,1.72,8.66-5.41,1.62,2.59-11.96,7.47ZM169.43,186.54l-8.65-9.28,8.59-8.01c1.31-1.22,2.44-1.89,3.4-2,1.15-.14,2.3.41,3.45,1.65l2.63,2.82c1.15,1.24,1.62,2.42,1.4,3.56-.18.95-.93,2.04-2.23,3.26l-8.59,8.01ZM165.78,176.92l4.28,4.59,5.05-4.71c.63-.59.96-1.12.99-1.59.02-.48-.27-1.03-.85-1.65l-1.17-1.26c-.6-.64-1.13-.96-1.59-.96-.46-.02-1.01.27-1.65.87l-5.05,4.71ZM178.73,163.53l6.95,5.62-2.12,2.61-6.95-5.62,2.12-2.61ZM175.82,161.17l2.04,1.65-2.12,2.61-2.04-1.65,2.12-2.61ZM191.63,162.19l-3.74-2.34-10.74,1.58,2.49-3.98,6.66-.88-2.13-6.37,2.49-3.98,3.29,10.34,3.74,2.34-2.06,3.3ZM198.09,150.4l-11.76-4.75,5.2-12.87,2.73,1.1-3.74,9.26,1.88.76,3.54-8.77,2.44.98-3.55,8.77,1.89.76,3.83-9.47,2.83,1.14-5.28,13.08ZM201.88,132.93l-.86-.17.74-3.82c.6.1,1.02.05,1.26-.16.2-.19.36-.59.49-1.21l.91-4.68c.1-.49.11-.88.05-1.15-.09-.38-.35-.6-.78-.69-.46-.09-.81.05-1.04.4-.1.17-.24.56-.41,1.17-.14.51-.38,1.7-.75,3.57-.3,1.55-.55,2.62-.75,3.21-.48,1.44-1.09,2.29-1.83,2.54-.5.17-1.3.14-2.41-.08-1.38-.27-2.28-.69-2.7-1.26-.63-.85-.74-2.36-.31-4.54l1.04-5.33c.39-2.02.99-3.31,1.8-3.86.6-.41,1.54-.49,2.81-.24l-.35,3.9c-.49-.1-.84-.07-1.03.08-.25.2-.46.71-.62,1.52l-.82,4.23c-.19.96.04,1.51.68,1.63.44.08.76-.02.97-.31.13-.15.26-.5.4-1.05.09-.35.3-1.35.62-2.99.43-2.21.79-3.71,1.09-4.5.4-1.05.94-1.73,1.64-2.02.61-.24,1.49-.25,2.66-.02,1.07.21,1.83.5,2.28.87.58.47.88,1.19.9,2.17.02.86-.14,2.17-.48,3.92l-.9,4.63c-.31,1.61-.7,2.71-1.16,3.31-.67.88-1.72,1.18-3.14.91ZM199.17,110.64l8.9.78-.29,3.35-8.9-.78.29-3.35ZM195.44,110.32l2.62.23-.29,3.35-2.62-.23.29-3.35Z"/>
    </g>
  </g>
</svg>