<?xml version="1.0" encoding="utf-8"?>
<!-- Generator: Adobe Illustrator 26.3.1, SVG Export Plug-In . SVG Version: 6.00 Build 0)  -->
<svg version="1.1" id="katman_1" xmlns="http://www.w3.org/2000/svg" xmlns:xlink="http://www.w3.org/1999/xlink" x="0px" y="0px"
	 viewBox="0 0 830 308.2" style="enable-background:new 0 0 830 308.2;" xml:space="preserve">
<style type="text/css">
	.st0{fill:#DC0D15;}
	.st1{fill:#DD1219;}
	.st2{fill-rule:evenodd;clip-rule:evenodd;fill:#DC0D15;}
	.st3{fill:#DB0D15;}
	.st4{fill-rule:evenodd;clip-rule:evenodd;fill:#DB0D15;}
</style>
<g>
	<g>
		<path class="st0" d="M635.3-275.8h-8.7v-6.2h25v6.2h-8.9v26.3h-7.4V-275.8z"/>
		<path class="st0" d="M662.8-282v18.7c0,5.6,2.1,8.4,5.9,8.4c3.9,0,6-2.7,6-8.4V-282h7.3v18.2c0,10-5.1,14.8-13.6,14.8
			c-8.2,0-13-4.5-13-14.9V-282H662.8z M660.8-287.1c0-1.9,1.5-3.3,3.3-3.3c1.8,0,3.2,1.5,3.2,3.3c0,1.8-1.3,3.3-3.2,3.3
			C662.2-283.8,660.8-285.3,660.8-287.1z M670.8-287.1c0-1.9,1.4-3.3,3.3-3.3c1.8,0,3.2,1.5,3.2,3.3c0,1.8-1.3,3.3-3.2,3.3
			C672.2-283.8,670.8-285.3,670.8-287.1z"/>
		<path class="st0" d="M688.4-281.5c2.4-0.4,5.9-0.7,9.8-0.7c4.8,0,8.2,0.7,10.5,2.6c1.9,1.5,3,3.8,3,6.8c0,4.1-2.9,7-5.7,8v0.2
			c2.3,0.9,3.5,3.1,4.3,6.1c1,3.7,2,7.9,2.7,9.2h-7.5c-0.5-0.9-1.3-3.6-2.3-7.6c-0.9-4.1-2.3-5.2-5.3-5.2h-2.2v12.8h-7.3V-281.5
			L688.4-281.5z M695.7-267.5h2.9c3.7,0,5.8-1.8,5.8-4.7c0-3-2-4.5-5.4-4.5c-1.8,0-2.8,0.2-3.3,0.2V-267.5L695.7-267.5z"/>
		<path class="st0" d="M717-282h7.3v14.4h0.2c0.7-1.2,1.5-2.4,2.2-3.6l7.4-10.8h9l-10.8,13.8l11.3,18.7h-8.6l-8-14l-2.8,3.4v10.6
			H717V-282z"/>
		<path class="st0" d="M754.1-282v32.5h-7.4V-282H754.1z M747.1-287.1c0-1.9,1.5-3.3,3.4-3.3c1.8,0,3.2,1.5,3.2,3.3
			c0,1.7-1.4,3.3-3.2,3.3C748.5-283.8,747.1-285.4,747.1-287.1z"/>
		<path class="st0" d="M767.1-249.4v-13.3L756.8-282h8.4l3.3,7.8c1,2.4,1.7,4.1,2.5,6.2h0.1c0.7-2,1.5-3.9,2.5-6.2l3.3-7.8h8.2
			l-10.7,19v13.6H767.1z"/>
		<path class="st0" d="M807.1-263.2h-12v7.7h13.4v6h-20.8V-282h20.1v6h-12.7v6.8h12L807.1-263.2L807.1-263.2z"/>
	</g>
	<path class="st1" d="M338.4-281.5c2.4-0.4,5.9-0.7,9.9-0.7c4.9,0,8.3,0.7,10.6,2.6c1.9,1.5,3,3.8,3,6.9c0,4.2-3,7-5.8,8.1v0.1
		c2.3,0.9,3.5,3.1,4.4,6.1c1,3.7,2,8,2.7,9.2h-7.6c-0.5-0.9-1.3-3.6-2.3-7.6c-0.9-4.1-2.3-5.2-5.3-5.2h-2.2v12.9h-7.3L338.4-281.5
		L338.4-281.5z M345.7-267.5h2.9c3.7,0,5.9-1.9,5.9-4.7c0-3-2-4.5-5.4-4.6c-1.8,0-2.8,0.2-3.4,0.2V-267.5z"/>
	<path class="st1" d="M386.6-263.1h-12v7.8H388v6.1h-20.9V-282h20.2v6.1h-12.8v6.8h12L386.6-263.1L386.6-263.1z"/>
	<path class="st1" d="M393.1-281.5c2.3-0.4,5.5-0.7,10-0.7c4.6,0,7.8,0.9,10,2.6c2.1,1.7,3.5,4.4,3.5,7.6c0,3.2-1.1,5.9-3,7.8
		c-2.5,2.4-6.3,3.5-10.6,3.5c-1,0-1.9-0.1-2.5-0.2v11.7h-7.3L393.1-281.5L393.1-281.5z M400.4-266.7c0.6,0.1,1.4,0.2,2.5,0.2
		c3.9,0,6.4-2,6.4-5.3c0-3-2.1-4.8-5.8-4.8c-1.5,0-2.5,0.1-3.1,0.3V-266.7z"/>
	<path class="st1" d="M428.7-282v18.9c0,5.6,2.1,8.5,5.9,8.5c3.9,0,6-2.7,6-8.5V-282h7.4v18.4c0,10.1-5.1,14.9-13.6,14.9
		c-8.3,0-13.1-4.6-13.1-15V-282H428.7z"/>
	<path class="st1" d="M454.4-281.5c1.9-0.4,5.9-0.7,9.6-0.7c4.5,0,7.3,0.4,9.7,1.8c2.3,1.2,3.9,3.5,3.9,6.4c0,2.9-1.7,5.6-5.4,7v0.1
		c3.7,1,6.5,3.8,6.5,8.1c0,3-1.4,5.3-3.4,6.9c-2.4,1.9-6.4,3-12.9,3c-3.6,0-6.4-0.2-8-0.5L454.4-281.5L454.4-281.5z M461.7-269h2.4
		c3.9,0,6-1.6,6-4c0-2.5-1.9-3.8-5.2-3.8c-1.6,0-2.5,0.1-3.2,0.2L461.7-269L461.7-269z M461.7-254.5c0.7,0.1,1.6,0.1,2.9,0.1
		c3.4,0,6.3-1.3,6.3-4.7c0-3.3-3-4.6-6.7-4.6h-2.5V-254.5z"/>
	<path class="st1" d="M483.7-282h7.4v26.5h13v6.2h-20.4V-282z"/>
	<path class="st1" d="M516-282v32.7h-7.4V-282H516z"/>
	<path class="st1" d="M546.4-250.2c-1.4,0.7-4.4,1.4-8.4,1.4c-11.3,0-17.1-7-17.1-16.4c0-11.2,8-17.4,17.9-17.4
		c3.8,0,6.8,0.8,8.1,1.5l-1.5,5.9c-1.5-0.6-3.6-1.2-6.2-1.2c-5.9,0-10.4,3.6-10.4,10.8c0,6.6,3.9,10.7,10.5,10.7
		c2.2,0,4.7-0.5,6.2-1.1L546.4-250.2z"/>
	<path class="st1" d="M591-266c0,10.7-6.5,17.2-16.1,17.2c-9.7,0-15.4-7.3-15.4-16.7c0-9.8,6.3-17.1,15.9-17.1
		C585.6-282.5,591-275,591-266z M567.4-265.5c0,6.4,3,10.9,8,10.9c5,0,7.9-4.8,7.9-11.1c0-5.9-2.8-10.9-7.9-10.9
		C570.3-276.6,567.4-271.9,567.4-265.5z"/>
	<path class="st1" d="M595.9-282h20v6.1h-12.6v7.5h11.8v6h-11.8v13.2h-7.4V-282z"/>
	<path class="st1" d="M366.1-203.5c-0.1-3.9-0.3-8.7-0.3-13.4h-0.1c-1,4.2-2.4,8.8-3.6,12.7l-4,12.8h-5.8l-3.5-12.7
		c-1.1-3.8-2.2-8.5-3-12.8h-0.1c-0.2,4.4-0.3,9.5-0.6,13.6l-0.6,12.4h-6.9l2.1-32.7h9.9l3.2,10.9c1,3.8,2,7.9,2.8,11.7h0.1
		c0.9-3.8,2-8.1,3.1-11.8l3.5-10.9h9.7l1.8,32.7h-7.2L366.1-203.5z"/>
	<path class="st1" d="M386.9-223.7v32.7h-7.4v-32.7H386.9z"/>
	<path class="st1" d="M393.3-191v-32.7h8.6l6.8,12c1.9,3.4,3.9,7.5,5.3,11.2h0.1c-0.5-4.3-0.6-8.7-0.6-13.6v-9.6h6.8v32.7h-7.8
		l-7-12.6c-1.9-3.5-4.1-7.7-5.7-11.6l-0.1,0.1c0.2,4.3,0.3,8.9,0.3,14.3v9.9L393.3-191L393.3-191z"/>
	<path class="st1" d="M434.2-223.7v32.7h-7.4v-32.7H434.2z"/>
	<path class="st1" d="M440.9-198.6c2,1,5,2,8.2,2c3.4,0,5.2-1.4,5.2-3.6c0-2-1.6-3.2-5.5-4.6c-5.4-1.9-9-4.9-9-9.7
		c0-5.6,4.7-9.9,12.4-9.9c3.7,0,6.4,0.8,8.4,1.6l-1.6,6c-1.3-0.6-3.6-1.6-6.9-1.6s-4.8,1.5-4.8,3.2c0,2.1,1.9,3,6.1,4.6
		c5.8,2.1,8.5,5.1,8.5,9.8c0,5.5-4.2,10.1-13.2,10.1c-3.7,0-7.4-1-9.3-2L440.9-198.6z"/>
	<path class="st1" d="M473.2-217.5h-8.8v-6.2h25.2v6.2h-8.9v26.5h-7.4V-217.5z"/>
	<path class="st1" d="M493.4-223.3c2.4-0.4,5.9-0.7,9.9-0.7c4.9,0,8.3,0.7,10.6,2.6c1.9,1.6,3,3.8,3,6.9c0,4.2-3,7-5.8,8.1v0.1
		c2.3,0.9,3.5,3.1,4.4,6.1c1,3.7,2,8,2.7,9.2h-7.6c-0.5-0.9-1.3-3.6-2.3-7.6c-0.9-4.1-2.3-5.2-5.3-5.2h-2.2v12.9h-7.3L493.4-223.3
		L493.4-223.3z M500.8-209.2h2.9c3.7,0,5.9-1.9,5.9-4.7c0-3-2-4.5-5.4-4.6c-1.8,0-2.8,0.1-3.4,0.2V-209.2z"/>
	<path class="st1" d="M528.9-191v-13.4l-10.3-19.3h8.5l3.3,7.9c1,2.4,1.7,4.1,2.5,6.3h0.1c0.7-2,1.5-3.9,2.5-6.3l3.3-7.9h8.3
		l-10.8,19.1v13.6L528.9-191L528.9-191z"/>
	<path class="st1" d="M590.4-207.7c0,10.7-6.5,17.2-16.1,17.2c-9.7,0-15.4-7.3-15.4-16.7c0-9.8,6.3-17.1,15.9-17.1
		C584.9-224.3,590.4-216.7,590.4-207.7z M566.7-207.3c0,6.4,3,10.9,8,10.9c5,0,7.9-4.8,7.9-11.1c0-5.9-2.8-10.9-7.9-10.9
		C569.6-218.4,566.7-213.6,566.7-207.3z"/>
	<path class="st1" d="M595.2-223.7h20v6.1h-12.6v7.5h11.8v6h-11.8v13.2h-7.4V-223.7z"/>
	<path class="st1" d="M654.6-191.9c-1.4,0.7-4.4,1.4-8.4,1.4c-11.3,0-17.2-7-17.2-16.4c0-11.2,8-17.4,17.9-17.4
		c3.8,0,6.8,0.8,8.1,1.5l-1.5,5.9c-1.5-0.6-3.6-1.2-6.2-1.2c-5.9,0-10.4,3.6-10.4,10.8c0,6.6,3.9,10.7,10.5,10.7
		c2.2,0,4.7-0.5,6.2-1.1L654.6-191.9z"/>
	<path class="st1" d="M666.9-223.7v18.9c0,5.6,2.1,8.5,5.9,8.5c3.9,0,6-2.7,6-8.5v-18.9h7.4v18.4c0,10.1-5.1,14.9-13.7,14.9
		c-8.3,0-13.1-4.6-13.1-15v-18.3H666.9z"/>
	<path class="st1" d="M692.6-223.7h7.4v26.5h13v6.2h-20.4L692.6-223.7L692.6-223.7z"/>
	<path class="st1" d="M718.7-217.5h-8.8v-6.2H735v6.2h-8.9v26.5h-7.4V-217.5z"/>
	<path class="st1" d="M746.3-223.7v18.9c0,5.6,2.1,8.5,5.9,8.5c3.9,0,6-2.7,6-8.5v-18.9h7.4v18.4c0,10.1-5.1,14.9-13.7,14.9
		c-8.3,0-13.1-4.6-13.1-15v-18.3H746.3z"/>
	<path class="st1" d="M772.1-223.3c2.4-0.4,5.9-0.7,9.9-0.7c4.9,0,8.3,0.7,10.6,2.6c1.9,1.6,3,3.8,3,6.9c0,4.2-3,7-5.8,8.1v0.1
		c2.3,0.9,3.5,3.1,4.4,6.1c1,3.7,2,8,2.7,9.2h-7.6c-0.5-0.9-1.3-3.6-2.3-7.6c-0.9-4.1-2.3-5.2-5.3-5.2h-2.2v12.9h-7.3L772.1-223.3
		L772.1-223.3z M779.4-209.2h2.9c3.7,0,5.9-1.9,5.9-4.7c0-3-2-4.5-5.4-4.6c-1.8,0-2.8,0.1-3.3,0.2V-209.2z"/>
	<path class="st1" d="M820.3-204.8h-12v7.8h13.5v6.1h-20.9v-32.7h20.2v6.1h-12.8v6.8h12L820.3-204.8L820.3-204.8z"/>
	<path class="st1" d="M346-141.1l-2.3,8.4H336l10-32.7h9.7l10.1,32.7h-8l-2.5-8.4H346z M354.3-146.7l-2-6.9
		c-0.6-1.9-1.2-4.4-1.6-6.3h-0.1c-0.5,1.9-1,4.4-1.5,6.3l-1.9,6.9H354.3z"/>
	<path class="st1" d="M370.2-132.7v-32.7h8.6l6.8,12c1.9,3.4,3.9,7.5,5.3,11.2h0.1c-0.5-4.3-0.6-8.7-0.6-13.6v-9.6h6.8v32.7h-7.8
		l-7-12.6c-1.9-3.5-4.1-7.7-5.7-11.6l-0.1,0.1c0.2,4.3,0.3,8.9,0.3,14.3v9.9H370.2z"/>
	<path class="st1" d="M403.7-165c2.7-0.4,6.3-0.7,10-0.7c6.2,0,10.2,1.1,13.4,3.5c3.4,2.5,5.5,6.6,5.5,12.3c0,6.3-2.3,10.6-5.4,13.3
		c-3.5,2.9-8.7,4.2-15.1,4.2c-3.8,0-6.5-0.2-8.4-0.5L403.7-165L403.7-165z M411.2-138.3c0.6,0.1,1.6,0.1,2.6,0.1
		c6.7,0.1,11.1-3.6,11.1-11.5c0-6.8-3.9-10.4-10.3-10.4c-1.6,0-2.7,0.1-3.4,0.3V-138.3z"/>
	<path class="st1" d="M451.7-159.2H443v-6.2h25.2v6.2h-8.9v26.5h-7.4V-159.2z"/>
	<path class="st1" d="M500.6-149.4c0,10.7-6.5,17.2-16.1,17.2c-9.7,0-15.4-7.3-15.4-16.7c0-9.8,6.3-17.1,15.9-17.1
		C495.1-166,500.6-158.5,500.6-149.4z M476.9-149c0,6.4,3,10.9,8,10.9c5,0,7.9-4.8,7.9-11.1c0-5.9-2.8-10.9-7.9-10.9
		C479.9-160.1,476.9-155.4,476.9-149z"/>
	<path class="st1" d="M512.8-165.5v18.9c0,5.6,2.1,8.5,5.9,8.5c3.9,0,6-2.7,6-8.5v-18.9h7.4v18.4c0,10.1-5.1,14.9-13.6,14.9
		c-8.3,0-13.1-4.6-13.1-15v-18.3L512.8-165.5L512.8-165.5z"/>
	<path class="st1" d="M538.5-165c2.4-0.4,5.9-0.7,9.9-0.7c4.9,0,8.3,0.7,10.6,2.6c1.9,1.6,3,3.8,3,6.9c0,4.2-3,7-5.8,8.1v0.1
		c2.3,0.9,3.5,3.1,4.4,6.1c1,3.7,2,8,2.7,9.2h-7.6c-0.5-0.9-1.3-3.6-2.3-7.6c-0.9-4.1-2.3-5.2-5.3-5.2h-2.2v12.9h-7.3L538.5-165
		L538.5-165z M545.9-150.9h2.9c3.7,0,5.9-1.9,5.9-4.7c0-3-2-4.5-5.4-4.6c-1.8,0-2.8,0.1-3.3,0.2V-150.9z"/>
	<path class="st1" d="M574.8-165.5v32.7h-7.4v-32.7H574.8z"/>
	<path class="st1" d="M581.4-140.3c2,1,5.1,2,8.2,2c3.4,0,5.2-1.4,5.2-3.5c0-2-1.6-3.2-5.5-4.6c-5.4-1.9-9-4.9-9-9.7
		c0-5.6,4.7-9.9,12.4-9.9c3.7,0,6.4,0.8,8.3,1.6l-1.7,6c-1.3-0.6-3.6-1.6-6.8-1.6s-4.8,1.4-4.8,3.2c0,2.1,1.8,3,6.1,4.6
		c5.8,2.1,8.5,5.1,8.5,9.8c0,5.5-4.2,10.1-13.2,10.1c-3.7,0-7.4-1-9.3-2L581.4-140.3z"/>
	<path class="st1" d="M635.1-145.3c-0.2-3.9-0.3-8.7-0.3-13.4h-0.2c-1,4.2-2.4,8.8-3.6,12.7l-4,12.8h-5.8l-3.5-12.7
		c-1.1-3.8-2.2-8.5-3-12.8h-0.1c-0.2,4.4-0.3,9.5-0.6,13.6l-0.6,12.4h-6.8l2.1-32.7h9.9l3.2,10.9c1,3.8,2,7.9,2.8,11.7h0.2
		c0.9-3.8,2-8.1,3.1-11.8l3.5-10.9h9.7l1.8,32.7h-7.2L635.1-145.3z"/>
	<g>
		<g>
			<g>
				<g>
					<path class="st0" d="M268.7-112h-4.8c-0.9,0-1.3-1.2-0.6-1.9l1.4-1.2c1.2-1,2.6-1.6,4.1-1.6h4.8c0.9,0,1.3,1.2,0.6,1.9
						l-1.4,1.2C271.6-112.6,270.2-112,268.7-112"/>
					<path class="st0" d="M274.9-118.8l-4.8,0.3c-0.9,0.1-1.4-1.1-0.7-1.8l1.3-1.3c1.1-1.1,2.5-1.8,4-1.9l4.8-0.3
						c0.9-0.1,1.4,1.1,0.7,1.8l-1.3,1.3C277.9-119.5,276.5-118.9,274.9-118.8"/>
					<path class="st0" d="M280.7-125.9l-4.8,0.7c-0.9,0.1-1.5-1.1-0.9-1.8l1.2-1.4c1-1.2,2.4-1.9,3.9-2.1l4.8-0.7
						c0.9-0.1,1.5,1.1,0.9,1.8l-1.2,1.4C283.6-126.9,282.2-126.1,280.7-125.9"/>
					<path class="st0" d="M286-133.5l-4.7,1c-0.9,0.2-1.5-0.9-1-1.7l1.1-1.4c0.9-1.2,2.3-2.1,3.7-2.4l4.7-1c0.9-0.2,1.5,0.9,1,1.7
						l-1.1,1.4C288.8-134.6,287.5-133.8,286-133.5"/>
					<path class="st0" d="M290.7-141.4l-4.6,1.3c-0.9,0.2-1.6-0.8-1.1-1.6l1-1.5c0.9-1.3,2.1-2.2,3.5-2.6l4.6-1.3
						c0.9-0.3,1.6,0.8,1.1,1.6l-1,1.5C293.5-142.7,292.2-141.8,290.7-141.4"/>
					<path class="st0" d="M294.9-149.6l-4.5,1.6c-0.9,0.3-1.7-0.7-1.2-1.5l0.9-1.6c0.8-1.4,1.9-2.4,3.4-2.9l4.5-1.6
						c0.9-0.3,1.7,0.7,1.2,1.5l-0.9,1.6C297.5-151.1,296.3-150.1,294.9-149.6"/>
					<path class="st0" d="M298.5-158.1l-4.4,2c-0.8,0.4-1.7-0.6-1.3-1.5l0.8-1.6c0.7-1.4,1.8-2.5,3.1-3.1l4.4-1.9
						c0.8-0.4,1.7,0.6,1.3,1.4l-0.8,1.6C301-159.8,299.9-158.7,298.5-158.1"/>
					<path class="st0" d="M301.5-166.8l-4.2,2.2c-0.8,0.4-1.8-0.5-1.4-1.4l0.6-1.7c0.6-1.4,1.6-2.6,2.9-3.3l4.2-2.2
						c0.8-0.4,1.8,0.5,1.4,1.4l-0.6,1.7C303.9-168.7,302.8-167.5,301.5-166.8"/>
					<path class="st0" d="M303.9-175.7l-4.1,2.6c-0.8,0.5-1.8-0.4-1.5-1.3l0.5-1.7c0.5-1.5,1.4-2.7,2.7-3.5l4.1-2.5
						c0.8-0.5,1.8,0.3,1.5,1.2l-0.5,1.7C306.1-177.7,305.2-176.5,303.9-175.7"/>
					<path class="st0" d="M305.6-184.7l-3.9,2.8c-0.7,0.5-1.8-0.2-1.6-1.1l0.4-1.8c0.4-1.5,1.2-2.8,2.4-3.7l3.9-2.8
						c0.7-0.6,1.8,0.2,1.6,1.1l-0.4,1.8C307.7-186.9,306.8-185.6,305.6-184.7"/>
					<path class="st0" d="M306.7-193.9l-3.7,3.1c-0.7,0.6-1.8-0.1-1.7-1l0.3-1.8c0.2-1.5,1-2.9,2.2-3.9l3.7-3.1
						c0.7-0.6,1.8,0.1,1.7,1l-0.3,1.8C308.7-196.2,307.9-194.8,306.7-193.9"/>
					<path class="st0" d="M307.2-203.1l-3.5,3.3c-0.7,0.6-1.8,0-1.7-0.9l0.2-1.8c0.1-1.6,0.8-3,1.9-4l3.5-3.3c0.7-0.6,1.8,0,1.7,0.9
						l-0.2,1.8C309-205.5,308.3-204.1,307.2-203.1"/>
					<path class="st0" d="M307-212.3l-3.2,3.6c-0.6,0.7-1.8,0.2-1.8-0.8l0-1.8c0-1.6,0.6-3,1.6-4.1l3.2-3.6c0.6-0.7,1.8-0.2,1.8,0.8
						l0,1.8C308.6-214.9,308.1-213.4,307-212.3"/>
					<path class="st0" d="M306.2-221.4l-3,3.8c-0.6,0.7-1.8,0.3-1.9-0.7l-0.1-1.8c-0.1-1.5,0.4-3,1.3-4.2l3-3.8
						c0.6-0.7,1.8-0.3,1.9,0.7l0.1,1.8C307.6-224.1,307.2-222.6,306.2-221.4"/>
					<path class="st0" d="M304.8-230.5l-2.7,4c-0.5,0.8-1.8,0.4-1.9-0.5l-0.2-1.8c-0.2-1.6,0.2-3.1,1-4.3l2.7-4
						c0.5-0.8,1.8-0.4,1.9,0.5l0.2,1.8C306-233.3,305.6-231.8,304.8-230.5"/>
					<path class="st0" d="M302.7-239.5l-2.4,4.1c-0.5,0.8-1.7,0.5-1.9-0.4l-0.3-1.8c-0.3-1.5,0-3.1,0.7-4.4l2.4-4.2
						c0.5-0.8,1.7-0.5,1.9,0.4l0.4,1.8C303.7-242.4,303.5-240.8,302.7-239.5"/>
					<path class="st0" d="M300-248.3l-2.1,4.3c-0.4,0.8-1.7,0.6-1.9-0.3l-0.5-1.8c-0.4-1.5-0.3-3.1,0.4-4.4l2.1-4.3
						c0.4-0.8,1.7-0.6,1.9,0.3l0.5,1.8C300.8-251.2,300.7-249.7,300-248.3"/>
					<path class="st0" d="M296.7-256.9l-1.8,4.4c-0.4,0.9-1.6,0.8-2-0.1l-0.6-1.7c-0.5-1.5-0.5-3,0.1-4.4l1.8-4.5
						c0.4-0.8,1.7-0.8,2,0.1l0.6,1.7C297.3-259.9,297.3-258.3,296.7-256.9"/>
					<path class="st0" d="M292.8-265.3l-1.5,4.6c-0.3,0.9-1.6,0.9-2,0l-0.7-1.7c-0.6-1.4-0.7-3-0.2-4.4l1.5-4.6c0.3-0.9,1.6-0.9,2,0
						l0.7,1.7C293.2-268.2,293.3-266.7,292.8-265.3"/>
					<path class="st0" d="M288.3-273.3l-1.2,4.6c-0.2,0.9-1.5,1-2,0.1l-0.8-1.6c-0.7-1.4-0.9-2.9-0.5-4.4l1.2-4.7
						c0.2-0.9,1.5-1,2-0.1l0.8,1.6C288.5-276.3,288.7-274.8,288.3-273.3"/>
					<path class="st0" d="M283.3-281l-0.8,4.7c-0.2,0.9-1.5,1.1-2,0.3l-0.9-1.6c-0.8-1.3-1.1-2.9-0.8-4.4l0.8-4.7
						c0.2-0.9,1.5-1.1,1.9-0.3l0.9,1.6C283.2-284,283.5-282.5,283.3-281"/>
					<path class="st0" d="M277.7-288.4l-0.5,4.8c-0.1,0.9-1.4,1.2-1.9,0.4l-1-1.5c-0.9-1.3-1.3-2.8-1.1-4.3l0.5-4.8
						c0.1-0.9,1.4-1.2,1.9-0.4l1.1,1.5C277.5-291.4,277.9-289.9,277.7-288.4"/>
					<path class="st0" d="M271.7-295.3l-0.2,4.8c0,0.9-1.3,1.3-1.9,0.5l-1.1-1.4c-1-1.2-1.5-2.7-1.4-4.2l0.2-4.8
						c0-0.9,1.3-1.3,1.9-0.5l1.1,1.4C271.2-298.3,271.7-296.8,271.7-295.3"/>
					<path class="st0" d="M265.2-301.8l0.2,4.8c0,0.9-1.2,1.4-1.8,0.7l-1.2-1.3c-1.1-1.1-1.7-2.6-1.7-4.1l-0.2-4.8
						c0-0.9,1.2-1.4,1.9-0.7l1.2,1.3C264.5-304.8,265.1-303.3,265.2-301.8"/>
					<path class="st0" d="M258.2-307.9l0.5,4.8c0.1,0.9-1.1,1.5-1.8,0.8l-1.3-1.2c-1.1-1.1-1.8-2.5-2-4l-0.5-4.8
						c-0.1-0.9,1.1-1.5,1.8-0.8l1.3,1.2C257.3-310.8,258-309.4,258.2-307.9"/>
					<path class="st0" d="M250.8-313.4l0.8,4.7c0.2,0.9-1,1.5-1.7,0.9l-1.4-1.1c-1.2-1-2-2.3-2.3-3.8l-0.8-4.7
						c-0.2-0.9,1-1.5,1.7-0.9l1.4,1.1C249.8-316.2,250.6-314.9,250.8-313.4"/>
					<path class="st0" d="M243.1-318.4l1.2,4.7c0.2,0.9-0.9,1.6-1.7,1l-1.5-1c-1.3-0.9-2.2-2.2-2.5-3.6l-1.2-4.7
						c-0.2-0.9,0.9-1.6,1.7-1l1.5,1C241.8-321.1,242.7-319.9,243.1-318.4"/>
					<path class="st0" d="M235-322.9l1.5,4.6c0.3,0.9-0.8,1.7-1.6,1.2l-1.6-0.9c-1.3-0.8-2.3-2-2.8-3.5l-1.5-4.6
						c-0.3-0.9,0.8-1.6,1.6-1.2l1.6,1C233.6-325.5,234.6-324.3,235-322.9"/>
					<path class="st0" d="M226.7-326.7l1.8,4.4c0.4,0.9-0.7,1.7-1.5,1.3l-1.6-0.8c-1.4-0.7-2.4-1.9-3-3.3l-1.8-4.5
						c-0.3-0.9,0.6-1.7,1.5-1.3l1.6,0.8C225.1-329.3,226.1-328.1,226.7-326.7"/>
					<path class="st0" d="M218.1-330l2.1,4.3c0.4,0.8-0.5,1.7-1.4,1.4l-1.7-0.7c-1.4-0.6-2.6-1.7-3.2-3l-2.1-4.3
						c-0.4-0.8,0.5-1.7,1.4-1.4l1.7,0.7C216.3-332.5,217.4-331.4,218.1-330"/>
					<path class="st0" d="M209.3-332.7l2.4,4.1c0.5,0.8-0.4,1.8-1.3,1.5l-1.7-0.6c-1.5-0.5-2.7-1.5-3.4-2.8l-2.4-4.1
						c-0.5-0.8,0.4-1.8,1.3-1.5l1.7,0.6C207.3-335,208.5-334,209.3-332.7"/>
					<path class="st0" d="M200.3-334.8l2.7,4c0.5,0.8-0.3,1.8-1.2,1.6l-1.8-0.5c-1.5-0.4-2.8-1.3-3.6-2.6l-2.7-4
						c-0.5-0.8,0.3-1.8,1.2-1.5l1.8,0.5C198.2-336.9,199.5-336,200.3-334.8"/>
					<path class="st0" d="M191.2-336.2l3,3.8c0.6,0.7-0.2,1.8-1.1,1.6l-1.8-0.4c-1.5-0.3-2.9-1.1-3.8-2.3l-2.9-3.8
						c-0.6-0.7,0.2-1.8,1.1-1.6l1.8,0.4C188.9-338.2,190.3-337.4,191.2-336.2"/>
					<path class="st0" d="M182-337l3.2,3.6c0.6,0.7,0,1.8-1,1.7l-1.8-0.2c-1.6-0.2-2.9-0.9-3.9-2l-3.2-3.6c-0.6-0.7,0-1.8,1-1.7
						l1.8,0.2C179.6-338.8,181-338.1,182-337"/>
					<path class="st0" d="M172.8-337.2l3.5,3.3c0.6,0.6,0.1,1.8-0.9,1.8l-1.8-0.1c-1.6-0.1-3-0.7-4.1-1.7l-3.5-3.3
						c-0.7-0.6-0.1-1.8,0.9-1.8l1.8,0.1C170.3-338.8,171.7-338.2,172.8-337.2"/>
					<path class="st0" d="M163.6-336.7l3.7,3.1c0.7,0.6,0.2,1.8-0.7,1.8l-1.8,0c-1.6,0-3-0.5-4.2-1.5l-3.7-3.1
						c-0.7-0.6-0.2-1.8,0.7-1.8l1.8,0C161-338.1,162.4-337.6,163.6-336.7"/>
					<path class="st0" d="M154.5-335.5l3.9,2.8c0.7,0.5,0.3,1.8-0.6,1.9l-1.8,0.1c-1.6,0.1-3.1-0.3-4.3-1.2l-3.9-2.8
						c-0.7-0.5-0.3-1.8,0.6-1.9l1.8-0.1C151.7-336.8,153.2-336.4,154.5-335.5"/>
					<path class="st0" d="M145.4-333.8l4.1,2.5c0.8,0.5,0.5,1.8-0.5,1.9l-1.8,0.3c-1.5,0.2-3.1-0.1-4.4-0.9l-4.1-2.5
						c-0.8-0.5-0.5-1.8,0.5-1.9l1.8-0.3C142.6-334.9,144.1-334.6,145.4-333.8"/>
					<path class="st0" d="M136.5-331.4l4.2,2.2c0.8,0.4,0.6,1.7-0.3,1.9l-1.8,0.4c-1.5,0.3-3.1,0.1-4.4-0.6l-4.2-2.2
						c-0.8-0.4-0.6-1.7,0.3-1.9l1.8-0.4C133.6-332.3,135.2-332.1,136.5-331.4"/>
					<path class="st0" d="M127.8-328.4l4.4,1.9c0.8,0.4,0.7,1.7-0.2,2l-1.8,0.5c-1.5,0.5-3.1,0.4-4.4-0.2l-4.4-1.9
						c-0.8-0.4-0.7-1.7,0.2-2l1.7-0.5C124.9-329.1,126.4-329,127.8-328.4"/>
					<path class="st0" d="M119.3-324.8l4.5,1.6c0.9,0.3,0.8,1.6-0.1,2l-1.7,0.6c-1.4,0.6-3,0.6-4.4,0.1l-4.5-1.6
						c-0.9-0.3-0.8-1.6,0.1-2l1.7-0.6C116.4-325.2,117.9-325.3,119.3-324.8"/>
					<path class="st0" d="M111.1-320.6l4.6,1.3c0.9,0.2,0.9,1.6,0.1,2l-1.7,0.8c-1.4,0.6-3,0.8-4.4,0.4l-4.6-1.3
						c-0.9-0.3-0.9-1.6-0.1-2l1.7-0.8C108.1-320.9,109.7-321,111.1-320.6"/>
					<path class="st0" d="M103.2-315.8l4.7,1c0.9,0.2,1,1.5,0.2,2l-1.6,0.9c-1.4,0.8-2.9,1-4.4,0.7l-4.7-1c-0.9-0.2-1.1-1.5-0.2-2
						l1.6-0.9C100.2-315.9,101.8-316.1,103.2-315.8"/>
					<path class="st0" d="M95.7-310.5l4.8,0.7c0.9,0.1,1.2,1.4,0.3,1.9l-1.5,1c-1.3,0.8-2.8,1.2-4.3,1l-4.8-0.7
						c-0.9-0.1-1.1-1.4-0.3-1.9l1.5-1C92.7-310.4,94.2-310.7,95.7-310.5"/>
					<path class="st0" d="M88.5-304.7l4.8,0.3c0.9,0.1,1.2,1.3,0.5,1.9l-1.5,1.1c-1.2,0.9-2.7,1.4-4.2,1.3l-4.8-0.3
						c-0.9-0.1-1.2-1.3-0.5-1.9l1.5-1.1C85.5-304.4,87-304.8,88.5-304.7"/>
					<path class="st0" d="M81.8-298.4h4.8c0.9,0,1.3,1.2,0.6,1.9l-1.4,1.2c-1.2,1-2.6,1.6-4.2,1.6h-4.8c-0.9,0-1.3-1.2-0.6-1.9
						l1.4-1.2C78.8-297.9,80.3-298.4,81.8-298.4"/>
					<path class="st0" d="M75.5-291.7l4.8-0.3c0.9-0.1,1.4,1.2,0.7,1.8l-1.3,1.3c-1.1,1.1-2.5,1.8-4,1.9l-4.8,0.3
						c-0.9,0.1-1.4-1.1-0.7-1.8l1.3-1.3C72.6-290.9,74-291.6,75.5-291.7"/>
					<path class="st0" d="M69.8-284.5l4.8-0.7c0.9-0.1,1.5,1.1,0.9,1.8l-1.2,1.4c-1,1.2-2.4,1.9-3.9,2.1l-4.8,0.7
						c-0.9,0.1-1.5-1-0.9-1.8l1.2-1.4C66.9-283.6,68.3-284.3,69.8-284.5"/>
					<path class="st0" d="M64.5-277l4.7-1c0.9-0.2,1.6,0.9,1,1.7l-1.1,1.5c-0.9,1.2-2.3,2.1-3.7,2.4l-4.7,1c-0.9,0.2-1.5-0.9-1-1.7
						l1.1-1.4C61.7-275.8,63-276.7,64.5-277"/>
					<path class="st0" d="M59.7-269.1l4.6-1.3c0.9-0.2,1.6,0.8,1.1,1.6l-1,1.5c-0.8,1.3-2.1,2.2-3.5,2.7l-4.6,1.3
						c-0.9,0.3-1.6-0.8-1.1-1.6l1-1.5C57-267.7,58.3-268.7,59.7-269.1"/>
					<path class="st0" d="M55.6-260.9l4.5-1.6c0.9-0.3,1.7,0.7,1.2,1.5l-0.9,1.6c-0.8,1.4-1.9,2.4-3.4,2.9l-4.5,1.6
						c-0.9,0.3-1.7-0.7-1.2-1.5l0.9-1.6C53-259.3,54.1-260.4,55.6-260.9"/>
					<path class="st0" d="M52-252.4l4.4-1.9c0.8-0.4,1.7,0.6,1.3,1.5l-0.8,1.6c-0.7,1.4-1.8,2.5-3.2,3.1l-4.4,1.9
						c-0.8,0.4-1.7-0.6-1.3-1.4l0.8-1.7C49.5-250.7,50.6-251.8,52-252.4"/>
					<path class="st0" d="M49-243.7l4.2-2.2c0.8-0.4,1.8,0.5,1.4,1.4l-0.7,1.7c-0.6,1.4-1.6,2.6-2.9,3.3l-4.2,2.3
						c-0.8,0.4-1.8-0.5-1.4-1.4l0.6-1.7C46.6-241.8,47.7-243,49-243.7"/>
					<path class="st0" d="M46.6-234.8l4.1-2.6c0.8-0.5,1.8,0.4,1.5,1.3l-0.5,1.7c-0.5,1.5-1.4,2.7-2.7,3.5l-4.1,2.5
						c-0.8,0.5-1.8-0.3-1.5-1.3l0.5-1.7C44.4-232.7,45.3-234,46.6-234.8"/>
					<path class="st0" d="M44.9-225.7l3.9-2.8c0.7-0.5,1.8,0.2,1.6,1.1l-0.4,1.8c-0.3,1.5-1.2,2.8-2.4,3.7l-3.9,2.8
						c-0.7,0.6-1.8-0.2-1.6-1.1l0.4-1.8C42.8-223.5,43.6-224.8,44.9-225.7"/>
					<path class="st0" d="M43.7-216.6l3.7-3.1c0.7-0.6,1.8,0.1,1.7,1l-0.3,1.8c-0.2,1.5-1,2.9-2.2,3.9l-3.7,3.1
						c-0.7,0.6-1.8-0.1-1.7-1l0.3-1.8C41.8-214.3,42.6-215.6,43.7-216.6"/>
					<path class="st0" d="M43.3-207.4l3.5-3.3c0.7-0.6,1.8,0,1.7,0.9l-0.2,1.8c-0.1,1.6-0.8,3-1.9,4l-3.5,3.3
						c-0.7,0.6-1.8,0-1.7-0.9l0.2-1.8C41.5-204.9,42.2-206.3,43.3-207.4"/>
					<path class="st0" d="M43.4-198.2l3.2-3.6c0.6-0.7,1.8-0.1,1.8,0.8l0,1.8c0,1.6-0.6,3-1.6,4.1l-3.2,3.6
						c-0.6,0.7-1.8,0.1-1.8-0.8l0-1.8C41.9-195.6,42.4-197.1,43.4-198.2"/>
					<path class="st0" d="M44.3-189l2.9-3.8c0.6-0.7,1.8-0.3,1.8,0.7l0.1,1.8c0.1,1.5-0.4,3-1.3,4.2l-3,3.8
						c-0.6,0.7-1.8,0.3-1.8-0.7l-0.1-1.8C42.9-186.3,43.3-187.8,44.3-189"/>
					<path class="st0" d="M45.7-179.9l2.7-4c0.5-0.8,1.8-0.4,1.9,0.5l0.2,1.8c0.2,1.5-0.2,3.1-1,4.3l-2.7,4
						c-0.5,0.8-1.8,0.4-1.9-0.5l-0.2-1.8C44.5-177.1,44.9-178.7,45.7-179.9"/>
					<path class="st0" d="M47.8-170.9l2.4-4.2c0.5-0.8,1.7-0.5,1.9,0.4l0.3,1.8c0.3,1.5,0,3.1-0.7,4.4l-2.4,4.2
						c-0.5,0.8-1.7,0.5-1.9-0.4l-0.3-1.8C46.8-168.1,47-169.6,47.8-170.9"/>
					<path class="st0" d="M50.5-162.1l2.1-4.3c0.4-0.8,1.7-0.6,1.9,0.3l0.5,1.8c0.4,1.5,0.3,3.1-0.4,4.4l-2.1,4.3
						c-0.4,0.8-1.7,0.6-1.9-0.3l-0.5-1.8C49.7-159.2,49.8-160.8,50.5-162.1"/>
					<path class="st0" d="M53.8-153.6l1.8-4.4c0.3-0.9,1.7-0.8,2,0.1l0.6,1.7c0.5,1.5,0.5,3-0.1,4.4l-1.8,4.4
						c-0.3,0.9-1.7,0.8-2-0.1l-0.6-1.7C53.2-150.6,53.2-152.1,53.8-153.6"/>
					<path class="st0" d="M57.7-145.2l1.5-4.6c0.3-0.9,1.6-0.9,2,0l0.7,1.7c0.6,1.4,0.7,3,0.2,4.4l-1.5,4.6c-0.3,0.9-1.6,0.9-2,0
						l-0.7-1.7C57.3-142.2,57.2-143.8,57.7-145.2"/>
					<path class="st0" d="M62.2-137.2l1.2-4.6c0.2-0.9,1.5-1,2-0.1l0.8,1.6c0.7,1.4,0.9,2.9,0.5,4.4l-1.2,4.7c-0.2,0.9-1.5,1-2,0.1
						l-0.8-1.6C62-134.1,61.8-135.7,62.2-137.2"/>
					<path class="st0" d="M67.2-129.4l0.8-4.7c0.2-0.9,1.4-1.1,1.9-0.3l0.9,1.6c0.8,1.3,1.1,2.9,0.8,4.4l-0.8,4.7
						c-0.2,0.9-1.5,1.1-1.9,0.3l-0.9-1.6C67.2-126.4,66.9-128,67.2-129.4"/>
					<path class="st0" d="M72.7-122.1l0.5-4.8c0.1-0.9,1.4-1.2,1.9-0.4l1,1.5c0.9,1.3,1.3,2.8,1.1,4.3l-0.5,4.8
						c-0.1,0.9-1.4,1.2-1.9,0.4l-1-1.5C73-119.1,72.6-120.6,72.7-122.1"/>
					<path class="st0" d="M78.8-115.1l0.2-4.8c0-0.9,1.3-1.3,1.9-0.6l1.2,1.4c1,1.2,1.5,2.7,1.4,4.2l-0.2,4.8c0,0.9-1.3,1.3-1.9,0.5
						l-1.1-1.4C79.3-112.2,78.8-113.6,78.8-115.1"/>
					<path class="st0" d="M85.3-108.6l-0.2-4.8c0-0.9,1.2-1.4,1.8-0.7l1.2,1.3c1.1,1.1,1.7,2.6,1.7,4.1l0.2,4.8
						c0,0.9-1.2,1.4-1.8,0.7l-1.2-1.3C86-105.7,85.4-107.1,85.3-108.6"/>
					<path class="st0" d="M92.3-102.6l-0.5-4.8c-0.1-0.9,1.1-1.4,1.8-0.8l1.3,1.2c1.1,1.1,1.8,2.5,2,4l0.5,4.8
						c0.1,0.9-1.1,1.4-1.8,0.8l-1.3-1.2C93.1-99.7,92.4-101.1,92.3-102.6"/>
					<path class="st0" d="M99.7-97.1l-0.8-4.7c-0.2-0.9,1-1.5,1.7-0.9l1.4,1.1c1.2,1,2,2.3,2.3,3.8l0.8,4.7c0.2,0.9-1,1.5-1.7,0.9
						l-1.4-1.1C100.7-94.2,99.9-95.6,99.7-97.1"/>
					<path class="st0" d="M107.4-92.1l-1.2-4.7c-0.2-0.9,0.9-1.6,1.7-1l1.5,1c1.3,0.9,2.2,2.2,2.5,3.6l1.2,4.6
						c0.2,0.9-0.9,1.6-1.7,1l-1.5-1C108.6-89.3,107.7-90.6,107.4-92.1"/>
					<path class="st0" d="M115.4-87.6l-1.5-4.6c-0.3-0.9,0.8-1.6,1.6-1.1l1.6,0.9c1.3,0.8,2.3,2,2.8,3.5l1.5,4.6
						c0.3,0.9-0.8,1.6-1.6,1.2l-1.6-1C116.9-85,115.9-86.2,115.4-87.6"/>
					<path class="st0" d="M123.8-83.7l-1.8-4.4c-0.3-0.9,0.7-1.7,1.5-1.3l1.6,0.8c1.4,0.7,2.4,1.9,3,3.3l1.8,4.5
						c0.3,0.9-0.7,1.7-1.5,1.3l-1.6-0.8C125.4-81.2,124.4-82.3,123.8-83.7"/>
					<path class="st0" d="M132.4-80.4l-2.1-4.3c-0.4-0.8,0.5-1.7,1.4-1.4l1.7,0.7c1.4,0.6,2.6,1.7,3.2,3l2.1,4.3
						c0.4,0.8-0.5,1.7-1.4,1.4l-1.7-0.7C134.2-78,133.1-79.1,132.4-80.4"/>
					<path class="st0" d="M141.2-77.8l-2.4-4.1c-0.5-0.8,0.4-1.8,1.3-1.5l1.7,0.6c1.5,0.5,2.7,1.5,3.4,2.8l2.4,4.1
						c0.5,0.8-0.4,1.8-1.3,1.5l-1.7-0.6C143.2-75.5,142-76.4,141.2-77.8"/>
					<path class="st0" d="M150.2-75.7l-2.7-4c-0.5-0.8,0.3-1.8,1.2-1.5l1.8,0.5c1.5,0.4,2.8,1.3,3.6,2.6l2.7,4
						c0.5,0.8-0.3,1.8-1.2,1.5l-1.8-0.5C152.3-73.5,151-74.4,150.2-75.7"/>
					<path class="st0" d="M159.3-74.3l-2.9-3.8c-0.6-0.7,0.2-1.8,1.1-1.6l1.8,0.4c1.5,0.3,2.9,1.1,3.8,2.3l2.9,3.8
						c0.6,0.7-0.2,1.8-1.1,1.6l-1.8-0.4C161.6-72.3,160.2-73.1,159.3-74.3"/>
					<path class="st0" d="M168.5-73.5l-3.2-3.6c-0.6-0.7,0-1.8,1-1.7l1.8,0.2c1.6,0.2,2.9,0.9,3.9,2l3.2,3.6c0.6,0.7,0,1.8-1,1.7
						l-1.8-0.2C170.9-71.6,169.5-72.3,168.5-73.5"/>
					<path class="st0" d="M177.7-73.3l-3.4-3.3c-0.7-0.6-0.1-1.8,0.9-1.8l1.8,0.1c1.6,0.1,3,0.7,4.1,1.7l3.4,3.3
						c0.7,0.6,0.1,1.8-0.9,1.8l-1.8-0.1C180.2-71.6,178.8-72.3,177.7-73.3"/>
					<path class="st0" d="M186.9-73.8l-3.7-3.1c-0.7-0.6-0.2-1.8,0.7-1.8l1.8,0c1.6,0,3,0.5,4.2,1.5l3.7,3.1
						c0.7,0.6,0.2,1.8-0.7,1.8l-1.8,0C189.5-72.3,188-72.8,186.9-73.8"/>
					<path class="st0" d="M196-74.9l-3.9-2.8c-0.7-0.5-0.3-1.8,0.6-1.9l1.8-0.1c1.5-0.1,3.1,0.3,4.3,1.2l3.9,2.8
						c0.7,0.5,0.3,1.8-0.6,1.9l-1.8,0.2C198.8-73.6,197.2-74.1,196-74.9"/>
					<path class="st0" d="M205.1-76.7l-4.1-2.5c-0.8-0.5-0.5-1.8,0.5-1.9l1.8-0.3c1.5-0.2,3.1,0.1,4.4,0.9l4.1,2.5
						c0.8,0.5,0.5,1.8-0.5,1.9l-1.8,0.3C207.9-75.6,206.4-75.9,205.1-76.7"/>
					<path class="st0" d="M214-79.1l-4.2-2.2c-0.8-0.4-0.6-1.7,0.3-1.9l1.8-0.4c1.5-0.3,3.1-0.1,4.4,0.6l4.2,2.3
						c0.8,0.4,0.6,1.7-0.3,1.9l-1.8,0.4C216.9-78.2,215.3-78.4,214-79.1"/>
					<path class="st0" d="M222.7-82.1l-4.4-2c-0.8-0.4-0.7-1.7,0.2-2l1.8-0.5c1.5-0.5,3.1-0.4,4.4,0.2l4.4,2c0.8,0.4,0.7,1.7-0.2,2
						l-1.7,0.5C225.6-81.4,224-81.5,222.7-82.1"/>
					<path class="st0" d="M231.2-85.7l-4.5-1.6c-0.9-0.3-0.8-1.6,0.1-2l1.7-0.6c1.5-0.5,3-0.6,4.4,0l4.5,1.6c0.9,0.3,0.8,1.6-0.1,2
						l-1.7,0.6C234.1-85.2,232.6-85.2,231.2-85.7"/>
					<path class="st0" d="M239.4-89.9l-4.6-1.3c-0.9-0.2-0.9-1.6-0.1-2l1.7-0.8c1.4-0.6,3-0.8,4.4-0.4l4.6,1.3
						c0.9,0.3,0.9,1.6,0.1,2l-1.7,0.8C242.4-89.6,240.8-89.5,239.4-89.9"/>
					<path class="st0" d="M247.2-94.7l-4.7-1c-0.9-0.2-1-1.5-0.2-2l1.6-0.9c1.4-0.8,2.9-1,4.4-0.7l4.7,1c0.9,0.2,1,1.5,0.2,2
						l-1.6,0.9C250.3-94.6,248.7-94.3,247.2-94.7"/>
					<path class="st0" d="M254.8-99.9l-4.8-0.7c-0.9-0.1-1.1-1.4-0.3-1.9l1.5-1c1.3-0.8,2.8-1.2,4.3-1l4.8,0.7
						c0.9,0.1,1.1,1.4,0.4,1.9l-1.5,1C257.8-100.1,256.3-99.7,254.8-99.9"/>
					<path class="st0" d="M261.9-105.7l-4.8-0.3c-0.9-0.1-1.2-1.3-0.5-1.9l1.5-1.1c1.2-0.9,2.7-1.4,4.2-1.3l4.8,0.3
						c0.9,0.1,1.2,1.3,0.5,1.9l-1.5,1.1C264.9-106.1,263.4-105.6,261.9-105.7"/>
				</g>
			</g>
			<polygon class="st2" points="162.9,-309.1 170.5,-314.6 167.6,-323.6 175.2,-318 182.8,-323.6 179.9,-314.7 187.6,-309.1 
				178.2,-309.2 175.3,-300.1 172.4,-309.1 			"/>
			<polygon class="st2" points="124.1,-296.5 129,-304.5 122.9,-311.7 132,-309.4 137,-317.5 137.6,-308.1 146.9,-306 138.2,-302.4 
				138.9,-292.9 132.9,-300.1 			"/>
			<polygon class="st2" points="93.1,-269.9 94.6,-279.2 86.1,-283.5 95.4,-285 96.9,-294.3 101.1,-285.9 110.5,-287.4 
				103.8,-280.8 108.1,-272.4 99.8,-276.7 			"/>
			<polygon class="st2" points="74.6,-233.6 72.4,-242.7 62.9,-243.5 71,-248.3 68.8,-257.6 75.9,-251.4 84,-256.4 80.3,-247.7 
				87.6,-241.6 78.2,-242.4 			"/>
			<polygon class="st2" points="71.4,-192.9 65.9,-200.5 56.9,-197.6 62.4,-205.2 56.8,-212.8 65.8,-209.9 71.3,-217.6 71.3,-208.2 
				80.3,-205.2 71.4,-202.4 			"/>
			<polygon class="st2" points="84,-154.1 76,-159 68.8,-152.9 71,-162 62.9,-166.9 72.3,-167.6 74.5,-176.9 78.1,-168.2 
				87.5,-168.9 80.4,-162.8 			"/>
			<polygon class="st2" points="110.5,-123.1 101.2,-124.6 96.9,-116.1 95.5,-125.4 86.1,-126.9 94.5,-131.1 93,-140.5 99.7,-133.8 
				108.1,-138.1 103.8,-129.8 			"/>
			<polygon class="st2" points="146.9,-104.6 137.7,-102.4 137,-92.9 132.1,-101 122.9,-98.7 129.1,-105.9 124.1,-114 132.8,-110.3 
				138.9,-117.5 138.1,-108.2 			"/>
			<polygon class="st2" points="187.6,-101.4 179.9,-95.9 182.9,-86.8 175.3,-92.4 167.6,-86.8 170.6,-95.8 162.9,-101.3 
				172.3,-101.3 175.2,-110.3 178.1,-101.3 			"/>
			<polygon class="st2" points="226.4,-114 221.4,-106 227.6,-98.8 218.5,-101 213.5,-92.9 212.8,-102.3 203.6,-104.5 212.3,-108.1 
				211.6,-117.5 217.6,-110.3 			"/>
			<polygon class="st2" points="257.4,-140.5 255.9,-131.2 264.4,-126.9 255.1,-125.5 253.6,-116.1 249.4,-124.5 240,-123 
				246.7,-129.7 242.3,-138.1 250.7,-133.8 			"/>
			<polygon class="st2" points="275.9,-176.9 278.1,-167.7 287.5,-167 279.5,-162.1 281.7,-152.9 274.6,-159 266.5,-154.1 
				270.2,-162.7 262.9,-168.9 272.3,-168.1 			"/>
			<polygon class="st2" points="279.1,-217.6 284.6,-209.9 293.6,-212.9 288.1,-205.3 293.7,-197.6 284.7,-200.6 279.2,-192.9 
				279.2,-202.3 270.2,-205.2 279.1,-208.1 			"/>
			<polygon class="st2" points="266.5,-256.4 274.5,-251.4 281.7,-257.6 279.4,-248.5 287.6,-243.5 278.2,-242.8 276,-233.6 
				272.4,-242.3 262.9,-241.5 270.1,-247.6 			"/>
			<polygon class="st2" points="240,-287.4 249.3,-285.9 253.5,-294.4 255,-285 264.3,-283.6 255.9,-279.3 257.4,-270 250.8,-276.7 
				242.4,-272.3 246.7,-280.7 			"/>
			<polygon class="st2" points="203.6,-305.9 212.8,-308.1 213.5,-317.5 218.4,-309.5 227.6,-311.7 221.4,-304.6 226.4,-296.5 
				217.7,-300.2 211.6,-292.9 212.4,-302.3 			"/>
		</g>
		<path class="st0" d="M175.2-115.7c-49.4,0-89.6-40.2-89.6-89.6s40.2-89.6,89.6-89.6s89.6,40.2,89.6,89.6S224.6-115.7,175.2-115.7
			 M175.2-292.2c-47.9,0-86.9,39-86.9,86.9s39,86.9,86.9,86.9s86.9-39,86.9-86.9C262.2-253.2,223.2-292.2,175.2-292.2"/>
		<g>
			<g>
				<polygon class="st2" points="156.6,-262.9 175.1,-281.3 193.5,-262.8 168.3,-237.6 163.6,-242.3 184.1,-262.8 175.1,-272 
					166.1,-262.8 173.3,-255.5 168.7,-250.7 				"/>
				<polygon class="st2" points="128.8,-234.7 147.3,-253.3 172.6,-227.6 167.9,-223 147.2,-244 138.1,-234.7 145.4,-227.4 
					140.8,-222.6 				"/>
				<polygon class="st2" points="203.3,-253.3 221.8,-234.7 196.2,-209.3 191.6,-214 212.5,-234.9 203.3,-243.9 196,-236.6 
					191.3,-241.3 				"/>
				<polygon class="st2" points="147.1,-189 128.6,-207.6 154.1,-233.1 158.7,-228.3 137.8,-207.5 147.1,-198.4 154.3,-205.7 
					159.1,-201.1 				"/>
				<polygon class="st2" points="221.3,-207.5 202.8,-188.9 177.5,-214.6 182.2,-219.2 203,-198.2 212,-207.5 204.7,-214.8 
					209.3,-219.6 				"/>
				<polygon class="st2" points="164.6,-214.3 182.3,-232 186.9,-227.3 169.3,-209.5 				"/>
				<polygon class="st2" points="195.3,-224.4 177.7,-242.2 182.4,-246.8 200.1,-229.1 				"/>
				<polygon class="st2" points="150.6,-214.9 155.4,-219.4 173.8,-200.8 173.8,-160.4 167.4,-154 162.7,-158.7 167.2,-163.3 
					167.2,-198 				"/>
				<polygon class="st2" points="182.5,-205.5 187.2,-200.8 183.4,-197 183.4,-162.8 203.4,-142.8 212.5,-152 203.4,-161 
					196.9,-154.3 192.2,-159 203.5,-170.4 221.9,-151.8 203.5,-133.4 176.9,-160 176.9,-199.8 				"/>
				<polygon class="st2" points="128.8,-151.9 147.1,-170.3 175.4,-142.1 183.1,-149.9 187.7,-145.1 175.4,-132.7 147.1,-161.2 
					138.1,-151.9 147.2,-142.7 154.3,-149.9 158.9,-145.1 147.2,-133.4 				"/>
			</g>
		</g>
	</g>
</g>
<g>
	<g>
		<path class="st3" d="M315.5,123.9h-8.6v-6.1h24.6v6.1h-8.7v25.9h-7.3V123.9z"/>
		<path class="st3" d="M330.9,146c0-2.6,1.8-4.4,4.3-4.4c2.5,0,4.2,1.8,4.2,4.4c0,2.5-1.7,4.4-4.3,4.4
			C332.6,150.3,330.9,148.5,330.9,146z"/>
		<path class="st3" d="M368.8,148.9c-1.3,0.7-4.3,1.4-8.2,1.4c-11,0-16.7-6.9-16.7-16c0-10.9,7.8-17,17.5-17c3.7,0,6.6,0.8,7.9,1.4
			l-1.5,5.7c-1.5-0.6-3.5-1.2-6.1-1.2c-5.7,0-10.2,3.5-10.2,10.6c0,6.4,3.8,10.4,10.2,10.4c2.2,0,4.6-0.5,6-1L368.8,148.9z"/>
		<path class="st3" d="M372.6,146c0-2.6,1.8-4.4,4.3-4.4c2.5,0,4.2,1.8,4.2,4.4c0,2.5-1.7,4.4-4.3,4.4
			C374.4,150.3,372.6,148.5,372.6,146z"/>
		<path class="st3" d="M395.8,117.9h7.2V132h0.1c0.7-1.2,1.5-2.4,2.2-3.5l7.3-10.6h8.9l-10.6,13.6l11.1,18.4h-8.4l-7.8-13.8
			l-2.8,3.4v10.4h-7.2V117.9z"/>
		<path class="st3" d="M433.2,117.9v18.4c0,5.5,2.1,8.3,5.8,8.3c3.8,0,5.9-2.7,5.9-8.3v-18.4h7.2v17.9c0,9.9-5,14.6-13.3,14.6
			c-8.1,0-12.8-4.5-12.8-14.7v-17.8H433.2z M431.1,112.8c0-1.8,1.4-3.3,3.3-3.3c1.8,0,3.1,1.4,3.1,3.3c0,1.8-1.3,3.2-3.1,3.2
			C432.5,116,431.1,114.5,431.1,112.8z M441,112.8c0-1.8,1.4-3.3,3.2-3.3c1.8,0,3.2,1.4,3.2,3.3c0,1.8-1.3,3.2-3.2,3.2
			C442.3,116,441,114.5,441,112.8z"/>
		<path class="st3" d="M459.4,117.9h7.3v25.9h12.7v6.1h-20V117.9z"/>
		<path class="st3" d="M487.3,123.9h-8.6v-6.1h24.6v6.1h-8.7v25.9h-7.3V123.9z"/>
		<path class="st3" d="M515.1,117.9v18.4c0,5.5,2.1,8.3,5.8,8.3c3.8,0,5.9-2.7,5.9-8.3v-18.4h7.2v17.9c0,9.9-5,14.6-13.3,14.6
			c-8.1,0-12.8-4.5-12.8-14.7v-17.8H515.1z M513.1,112.8c0-1.8,1.4-3.3,3.3-3.3c1.8,0,3.1,1.4,3.1,3.3c0,1.8-1.3,3.2-3.1,3.2
			C514.5,116,513.1,114.5,513.1,112.8z M523,112.8c0-1.8,1.4-3.3,3.2-3.3c1.8,0,3.2,1.4,3.2,3.3c0,1.8-1.3,3.2-3.2,3.2
			C524.3,116,523,114.5,523,112.8z"/>
		<path class="st3" d="M541.4,118.3c2.3-0.4,5.8-0.7,9.6-0.7c4.7,0,8.1,0.7,10.3,2.5c1.9,1.5,2.9,3.7,2.9,6.7c0,4.1-2.9,6.9-5.6,7.9
			v0.1c2.2,0.9,3.5,3,4.3,6c1,3.6,2,7.8,2.6,9h-7.4c-0.5-0.9-1.3-3.5-2.2-7.4c-0.9-4-2.2-5.1-5.2-5.1h-2.2v12.6h-7.2V118.3z
			 M548.5,132h2.8c3.6,0,5.7-1.8,5.7-4.6c0-2.9-2-4.4-5.3-4.5c-1.8,0-2.8,0.1-3.3,0.2V132z"/>
		<path class="st3" d="M589.1,149.8l-10.2-32h7.9l3.9,13.5c1.1,3.8,2.1,7.4,2.8,11.4h0.1c0.8-3.8,1.8-7.6,2.9-11.3l4.1-13.7h7.7
			l-10.8,32H589.1z"/>
		<path class="st3" d="M631.8,136.3H620v7.6h13.1v5.9h-20.4v-32h19.7v5.9H620v6.6h11.8V136.3z"/>
		<path class="st3" d="M656.3,123.9h-8.6v-6.1h24.6v6.1h-8.7v25.9h-7.3V123.9z"/>
		<path class="st3" d="M684.1,117.9v18.4c0,5.5,2.1,8.3,5.8,8.3c3.8,0,5.9-2.7,5.9-8.3v-18.4h7.2v17.9c0,9.9-5,14.6-13.3,14.6
			c-8.1,0-12.8-4.5-12.8-14.7v-17.8H684.1z"/>
		<path class="st3" d="M710.4,118.3c2.3-0.4,5.8-0.7,9.6-0.7c4.7,0,8.1,0.7,10.3,2.5c1.9,1.5,2.9,3.7,2.9,6.7c0,4.1-2.9,6.9-5.6,7.9
			v0.1c2.2,0.9,3.5,3,4.3,6c1,3.6,2,7.8,2.6,9h-7.4c-0.5-0.9-1.3-3.5-2.2-7.4c-0.9-4-2.2-5.1-5.2-5.1h-2.2v12.6h-7.2V118.3z
			 M717.5,132h2.8c3.6,0,5.7-1.8,5.7-4.6c0-2.9-2-4.4-5.3-4.5c-1.8,0-2.8,0.1-3.3,0.2V132z"/>
		<path class="st3" d="M747.1,117.9v32h-7.3v-32H747.1z M740.2,112.8c0-1.8,1.5-3.3,3.3-3.3c1.8,0,3.2,1.4,3.2,3.3
			c0,1.7-1.4,3.2-3.2,3.2C741.6,116,740.2,114.5,740.2,112.8z"/>
		<path class="st3" d="M752.1,145.9l15.2-21.9v-0.2h-13.8v-6h23.2v4.2l-14.9,21.6v0.2H777v6h-24.8V145.9z"/>
		<path class="st3" d="M809.5,137.6c-0.1-3.8-0.3-8.5-0.3-13.1H809c-1,4.1-2.3,8.6-3.6,12.4l-3.9,12.5h-5.6l-3.4-12.4
			c-1-3.7-2.1-8.3-2.9-12.5h-0.1c-0.2,4.3-0.3,9.2-0.6,13.2l-0.6,12.1h-6.7l2-32h9.6l3.1,10.7c1,3.7,2,7.7,2.7,11.4h0.1
			c0.9-3.7,2-7.9,3-11.5l3.4-10.6h9.4l1.8,32h-7.1L809.5,137.6z"/>
		<path class="st3" d="M309.4,166.8c1.9-0.4,5.7-0.7,9.3-0.7c4.4,0,7.1,0.4,9.4,1.8c2.2,1.2,3.8,3.4,3.8,6.3c0,2.8-1.7,5.5-5.3,6.8
			v0.1c3.7,1,6.4,3.7,6.4,7.9c0,2.9-1.3,5.2-3.3,6.8c-2.3,1.8-6.2,2.9-12.6,2.9c-3.6,0-6.2-0.2-7.8-0.5V166.8z M316.5,179h2.4
			c3.8,0,5.8-1.6,5.8-3.9c0-2.4-1.8-3.7-5.1-3.7c-1.6,0-2.5,0.1-3.1,0.2V179z M316.5,193.2c0.7,0.1,1.6,0.1,2.8,0.1
			c3.3,0,6.2-1.2,6.2-4.6c0-3.2-2.9-4.5-6.5-4.5h-2.5V193.2z"/>
		<path class="st3" d="M345.8,190.1l-2.3,8.2H336l9.8-32h9.5l9.9,32h-7.8l-2.5-8.2H345.8z M353.9,184.7l-2-6.8
			c-0.6-1.9-1.1-4.3-1.6-6.2h-0.1c-0.5,1.9-0.9,4.3-1.5,6.2l-1.9,6.8H353.9z"/>
		<path class="st3" d="M370.1,166.4h7.2v14.1h0.1c0.7-1.2,1.5-2.4,2.2-3.5l7.3-10.6h8.9L385.1,180l11.1,18.4h-8.4l-7.8-13.8
			l-2.8,3.4v10.4h-7.2V166.4z"/>
		<path class="st3" d="M409.1,190.1l-2.3,8.2h-7.5l9.8-32h9.5l9.9,32h-7.8l-2.5-8.2H409.1z M417.2,184.7l-2-6.8
			c-0.6-1.9-1.1-4.3-1.6-6.2h-0.1c-0.5,1.9-0.9,4.3-1.5,6.2l-1.9,6.8H417.2z"/>
		<path class="st3" d="M433.4,198.3v-32h8.4l6.6,11.7c1.9,3.4,3.8,7.4,5.2,11h0.1c-0.5-4.2-0.6-8.5-0.6-13.3v-9.3h6.6v32h-7.6
			l-6.8-12.3c-1.9-3.4-4-7.5-5.5-11.3l-0.1,0c0.2,4.2,0.3,8.7,0.3,13.9v9.6H433.4z"/>
		<path class="st3" d="M467.3,166.4h7.3v25.9h12.7v6.1h-20V166.4z"/>
		<path class="st3" d="M499.4,166.4v32h-7.3v-32H499.4z"/>
		<path class="st3" d="M533.4,196.9c-2.2,0.8-6.4,1.8-10.7,1.8c-5.8,0-10.1-1.5-13-4.3c-2.9-2.8-4.6-6.9-4.5-11.6
			c0-10.6,7.8-16.7,18.3-16.7c4.1,0,7.3,0.8,8.9,1.6l-1.5,5.8c-1.8-0.8-3.9-1.4-7.4-1.4c-6,0-10.6,3.4-10.6,10.3
			c0,6.6,4.1,10.5,10.1,10.5c1.7,0,3-0.2,3.6-0.5v-6.7h-4.9V180h11.9V196.9z M518.8,158.5c0.1,1,0.9,2.2,2.8,2.2c2,0,2.8-1,3-2.2
			h3.7c-0.1,3.5-2.1,6-6.6,6c-4.7,0-6.6-2.5-6.6-6H518.8z"/>
		<path class="st3" d="M547.7,166.4v32h-7.3v-32H547.7z"/>
	</g>
</g>
<g>
	<g>
		<g>
			<g>
				<path class="st3" d="M234.9,248.7h-4.7c-0.9,0-1.3-1.2-0.6-1.8l1.3-1.2c1.1-1,2.6-1.5,4-1.5h4.7c0.9,0,1.3,1.2,0.6,1.8l-1.3,1.2
					C237.8,248.1,236.4,248.7,234.9,248.7"/>
				<path class="st3" d="M241.1,242.1l-4.7,0.3c-0.9,0.1-1.4-1.1-0.7-1.8l1.3-1.3c1.1-1.1,2.5-1.7,3.9-1.8l4.7-0.3
					c0.9-0.1,1.4,1.1,0.7,1.8l-1.3,1.3C243.9,241.4,242.5,242,241.1,242.1"/>
				<path class="st3" d="M246.7,235.1l-4.6,0.7c-0.9,0.1-1.4-1-0.8-1.7l1.2-1.3c1-1.1,2.3-1.9,3.8-2.1l4.6-0.7
					c0.9-0.1,1.4,1,0.8,1.7l-1.2,1.3C249.5,234.2,248.2,234.9,246.7,235.1"/>
				<path class="st3" d="M251.9,227.8l-4.6,1c-0.9,0.2-1.5-0.9-1-1.6l1.1-1.4c0.9-1.2,2.2-2,3.6-2.3l4.6-1c0.9-0.2,1.5,0.9,1,1.7
					l-1.1,1.4C254.6,226.6,253.3,227.4,251.9,227.8"/>
				<path class="st3" d="M256.5,220l-4.5,1.3c-0.9,0.2-1.6-0.8-1.1-1.6l1-1.5c0.8-1.3,2.1-2.2,3.5-2.6l4.5-1.3
					c0.9-0.3,1.6,0.8,1.1,1.6l-1,1.5C259.1,218.7,257.9,219.6,256.5,220"/>
				<path class="st3" d="M260.6,212l-4.4,1.6c-0.8,0.3-1.6-0.7-1.2-1.5l0.9-1.5c0.7-1.3,1.9-2.3,3.3-2.8l4.4-1.6
					c0.8-0.3,1.6,0.7,1.2,1.5l-0.9,1.6C263.1,210.5,261.9,211.5,260.6,212"/>
				<path class="st3" d="M264.1,203.7l-4.3,1.9c-0.8,0.4-1.7-0.6-1.3-1.4l0.8-1.6c0.6-1.4,1.7-2.4,3.1-3l4.3-1.9
					c0.8-0.4,1.7,0.6,1.3,1.4l-0.8,1.6C266.5,202.1,265.4,203.2,264.1,203.7"/>
				<path class="st3" d="M267,195.3l-4.1,2.2c-0.8,0.4-1.7-0.5-1.4-1.3l0.6-1.7c0.6-1.4,1.6-2.6,2.9-3.3l4.1-2.2
					c0.8-0.4,1.7,0.5,1.4,1.3l-0.6,1.7C269.3,193.4,268.3,194.6,267,195.3"/>
				<path class="st3" d="M269.3,186.6l-4,2.5c-0.8,0.5-1.7-0.3-1.5-1.2l0.5-1.7c0.5-1.4,1.4-2.7,2.6-3.4l4-2.5
					c0.8-0.5,1.7,0.3,1.5,1.2l-0.5,1.7C271.5,184.6,270.6,185.8,269.3,186.6"/>
				<path class="st3" d="M271,177.7l-3.8,2.8c-0.7,0.5-1.8-0.2-1.6-1.1l0.4-1.7c0.3-1.5,1.2-2.8,2.4-3.6l3.8-2.8
					c0.7-0.5,1.8,0.2,1.6,1.1l-0.4,1.7C273,175.6,272.2,176.9,271,177.7"/>
				<path class="st3" d="M272.1,168.8l-3.6,3c-0.7,0.6-1.8-0.1-1.6-1l0.3-1.8c0.2-1.5,1-2.8,2.1-3.8l3.6-3c0.7-0.6,1.8,0.1,1.6,1
					l-0.3,1.8C274,166.6,273.2,167.9,272.1,168.8"/>
				<path class="st3" d="M272.6,159.9l-3.4,3.3c-0.7,0.6-1.8,0-1.7-0.9l0.2-1.8c0.1-1.5,0.8-2.9,1.8-3.9l3.4-3.3
					c0.6-0.6,1.8,0,1.7,0.9l-0.2,1.8C274.3,157.4,273.6,158.8,272.6,159.9"/>
				<path class="st3" d="M272.4,150.9l-3.1,3.5c-0.6,0.7-1.8,0.2-1.7-0.8l0-1.8c0-1.5,0.6-2.9,1.6-4l3.1-3.5
					c0.6-0.7,1.8-0.2,1.8,0.8l0,1.8C273.9,148.4,273.4,149.8,272.4,150.9"/>
				<path class="st3" d="M271.6,141.9l-2.9,3.7c-0.6,0.7-1.8,0.3-1.8-0.6l-0.1-1.8c-0.1-1.5,0.4-3,1.3-4.1l2.9-3.7
					c0.6-0.7,1.7-0.3,1.8,0.6l0.1,1.8C273,139.3,272.5,140.8,271.6,141.9"/>
				<path class="st3" d="M270.2,133l-2.6,3.9c-0.5,0.7-1.7,0.4-1.8-0.5l-0.2-1.8c-0.2-1.5,0.2-3,1-4.2l2.6-3.9
					c0.5-0.7,1.7-0.4,1.8,0.5l0.2,1.8C271.4,130.3,271,131.8,270.2,133"/>
				<path class="st3" d="M268.1,124.3l-2.3,4c-0.5,0.8-1.7,0.5-1.9-0.4l-0.3-1.7c-0.3-1.5,0-3,0.7-4.3l2.3-4
					c0.4-0.8,1.7-0.5,1.9,0.4l0.3,1.7C269.1,121.5,268.9,123,268.1,124.3"/>
				<path class="st3" d="M265.5,115.7l-2.1,4.2c-0.4,0.8-1.7,0.6-1.9-0.3l-0.5-1.7c-0.4-1.5-0.3-3,0.4-4.3l2.1-4.2
					c0.4-0.8,1.7-0.6,1.9,0.3l0.5,1.7C266.3,112.9,266.2,114.4,265.5,115.7"/>
				<path class="st3" d="M262.3,107.3l-1.8,4.3c-0.3,0.8-1.6,0.7-1.9-0.1l-0.6-1.7c-0.5-1.4-0.5-3,0.1-4.3l1.8-4.3
					c0.3-0.8,1.6-0.7,1.9,0.1l0.6,1.7C262.9,104.4,262.8,105.9,262.3,107.3"/>
				<path class="st3" d="M258.5,99.2l-1.5,4.5c-0.3,0.9-1.5,0.9-1.9,0l-0.7-1.6c-0.6-1.4-0.7-2.9-0.2-4.3l1.4-4.5
					c0.3-0.9,1.6-0.9,1.9,0l0.7,1.6C258.9,96.3,258.9,97.8,258.5,99.2"/>
				<path class="st3" d="M254.1,91.3l-1.1,4.5c-0.2,0.9-1.5,1-1.9,0.1l-0.8-1.6c-0.7-1.3-0.9-2.9-0.5-4.3l1.1-4.5
					c0.2-0.9,1.5-1,1.9-0.1l0.8,1.6C254.3,88.4,254.5,89.9,254.1,91.3"/>
				<path class="st3" d="M249.2,83.8l-0.8,4.6c-0.2,0.9-1.4,1.1-1.9,0.3l-0.9-1.5c-0.8-1.3-1.1-2.8-0.8-4.2l0.8-4.6
					c0.2-0.9,1.4-1.1,1.9-0.3l0.9,1.5C249.2,80.8,249.5,82.3,249.2,83.8"/>
				<path class="st3" d="M243.8,76.6l-0.5,4.7c-0.1,0.9-1.3,1.2-1.9,0.4l-1-1.5c-0.9-1.2-1.3-2.7-1.1-4.2l0.5-4.7
					c0.1-0.9,1.3-1.2,1.9-0.4l1,1.5C243.6,73.7,243.9,75.1,243.8,76.6"/>
				<path class="st3" d="M237.9,69.8l-0.2,4.7c0,0.9-1.3,1.3-1.8,0.5l-1.1-1.4c-1-1.2-1.4-2.6-1.4-4.1l0.2-4.7
					c0-0.9,1.3-1.3,1.8-0.5l1.1,1.4C237.4,66.9,237.9,68.4,237.9,69.8"/>
				<path class="st3" d="M231.5,63.5l0.2,4.7c0,0.9-1.2,1.3-1.8,0.7l-1.2-1.3c-1-1.1-1.6-2.5-1.7-4l-0.2-4.7c0-0.9,1.2-1.3,1.8-0.7
					l1.2,1.3C230.9,60.6,231.5,62,231.5,63.5"/>
				<path class="st3" d="M224.7,57.6l0.5,4.7c0.1,0.9-1.1,1.4-1.7,0.8l-1.3-1.2c-1.1-1-1.8-2.4-1.9-3.9l-0.5-4.7
					c-0.1-0.9,1.1-1.4,1.7-0.8l1.3,1.2C223.9,54.8,224.6,56.1,224.7,57.6"/>
				<path class="st3" d="M217.5,52.2l0.8,4.6c0.2,0.9-1,1.5-1.7,0.9l-1.4-1.1c-1.2-1-2-2.3-2.2-3.7l-0.8-4.6c-0.2-0.9,1-1.5,1.7-0.9
					l1.4,1.1C216.5,49.4,217.3,50.8,217.5,52.2"/>
				<path class="st3" d="M210,47.3l1.1,4.5c0.2,0.9-0.9,1.6-1.6,1l-1.4-1c-1.2-0.9-2.1-2.1-2.5-3.6l-1.1-4.5c-0.2-0.9,0.9-1.6,1.6-1
					l1.4,1C208.8,44.6,209.6,45.9,210,47.3"/>
				<path class="st3" d="M202.1,43l1.4,4.5c0.3,0.9-0.8,1.6-1.5,1.1l-1.5-0.9c-1.3-0.8-2.3-2-2.7-3.4l-1.4-4.5
					c-0.3-0.9,0.8-1.6,1.5-1.1l1.5,0.9C200.7,40.4,201.7,41.6,202.1,43"/>
				<path class="st3" d="M194,39.2l1.8,4.3c0.3,0.8-0.6,1.7-1.5,1.2l-1.6-0.8c-1.4-0.7-2.4-1.8-2.9-3.2l-1.8-4.3
					c-0.3-0.8,0.6-1.7,1.5-1.2L191,36C192.4,36.7,193.4,37.8,194,39.2"/>
				<path class="st3" d="M185.6,36l2.1,4.2c0.4,0.8-0.5,1.7-1.4,1.3l-1.6-0.7c-1.4-0.6-2.5-1.6-3.2-3l-2.1-4.2
					c-0.4-0.8,0.5-1.7,1.4-1.3l1.6,0.7C183.8,33.6,184.9,34.6,185.6,36"/>
				<path class="st3" d="M177,33.4l2.3,4.1c0.4,0.8-0.4,1.7-1.3,1.4l-1.7-0.6c-1.4-0.5-2.6-1.5-3.4-2.7l-2.3-4.1
					c-0.5-0.8,0.4-1.7,1.3-1.4l1.7,0.6C175.1,31.1,176.2,32.1,177,33.4"/>
				<path class="st3" d="M168.2,31.3l2.6,3.9c0.5,0.8-0.3,1.8-1.2,1.5l-1.7-0.5c-1.5-0.4-2.7-1.3-3.5-2.5l-2.6-3.9
					c-0.5-0.7,0.3-1.8,1.2-1.5l1.7,0.5C166.2,29.2,167.4,30.1,168.2,31.3"/>
				<path class="st3" d="M159.3,29.9l2.9,3.7c0.6,0.7-0.2,1.8-1.1,1.6l-1.7-0.3c-1.5-0.3-2.8-1.1-3.7-2.2l-2.9-3.7
					c-0.6-0.7,0.2-1.8,1.1-1.6l1.7,0.3C157.1,28,158.4,28.8,159.3,29.9"/>
				<path class="st3" d="M150.4,29.2l3.1,3.5c0.6,0.7,0,1.8-1,1.7l-1.8-0.2c-1.5-0.2-2.9-0.9-3.9-2l-3.1-3.5c-0.6-0.7,0-1.8,1-1.7
					l1.8,0.2C148,27.4,149.4,28.1,150.4,29.2"/>
				<path class="st3" d="M141.4,29l3.4,3.3c0.6,0.6,0.1,1.8-0.8,1.7l-1.8-0.1c-1.5-0.1-2.9-0.7-4-1.7l-3.4-3.3
					c-0.6-0.6-0.1-1.8,0.8-1.7l1.8,0.1C138.9,27.4,140.3,28,141.4,29"/>
				<path class="st3" d="M132.4,29.5l3.6,3c0.7,0.6,0.2,1.8-0.7,1.8l-1.8,0c-1.5,0-3-0.5-4.1-1.4l-3.6-3c-0.7-0.6-0.2-1.8,0.7-1.8
					l1.8,0C129.9,28.1,131.3,28.6,132.4,29.5"/>
				<path class="st3" d="M123.5,30.6l3.8,2.7c0.7,0.5,0.3,1.7-0.6,1.8l-1.8,0.1c-1.5,0.1-3-0.3-4.2-1.1l-3.8-2.8
					c-0.7-0.5-0.3-1.7,0.6-1.8l1.8-0.1C120.8,29.3,122.3,29.7,123.5,30.6"/>
				<path class="st3" d="M114.7,32.3l4,2.5c0.8,0.5,0.5,1.7-0.5,1.9l-1.8,0.3c-1.5,0.2-3-0.1-4.2-0.8l-4-2.5
					c-0.8-0.5-0.5-1.7,0.5-1.9l1.8-0.3C111.9,31.2,113.4,31.5,114.7,32.3"/>
				<path class="st3" d="M106,34.7l4.1,2.2c0.8,0.4,0.6,1.7-0.3,1.9l-1.7,0.4c-1.5,0.3-3,0.1-4.3-0.6l-4.1-2.2
					c-0.8-0.4-0.6-1.7,0.3-1.9l1.7-0.4C103.2,33.8,104.7,34,106,34.7"/>
				<path class="st3" d="M97.5,37.6l4.3,1.9c0.8,0.4,0.7,1.6-0.2,1.9l-1.7,0.5c-1.4,0.4-3,0.4-4.3-0.2l-4.3-1.9
					c-0.8-0.4-0.7-1.6,0.2-1.9l1.7-0.5C94.6,36.9,96.2,37,97.5,37.6"/>
				<path class="st3" d="M89.2,41.1l4.4,1.6c0.8,0.3,0.8,1.6-0.1,1.9l-1.7,0.6c-1.4,0.5-2.9,0.6-4.3,0.1l-4.4-1.6
					c-0.8-0.3-0.8-1.6,0.1-1.9l1.7-0.6C86.3,40.6,87.9,40.6,89.2,41.1"/>
				<path class="st3" d="M81.2,45.2l4.5,1.3c0.9,0.2,0.9,1.5,0.1,1.9l-1.6,0.7c-1.4,0.6-2.9,0.8-4.3,0.4l-4.5-1.3
					c-0.9-0.2-0.9-1.5-0.1-1.9l1.6-0.7C78.3,44.9,79.8,44.8,81.2,45.2"/>
				<path class="st3" d="M73.5,49.8l4.6,1c0.9,0.2,1,1.5,0.2,1.9l-1.6,0.9c-1.3,0.7-2.8,1-4.3,0.7l-4.6-1c-0.9-0.2-1-1.5-0.2-1.9
					l1.6-0.9C70.6,49.8,72.1,49.5,73.5,49.8"/>
				<path class="st3" d="M66.2,55l4.6,0.7c0.9,0.1,1.1,1.4,0.3,1.9l-1.5,1c-1.3,0.8-2.8,1.2-4.2,1l-4.6-0.6
					c-0.9-0.1-1.1-1.4-0.3-1.9l1.5-1C63.2,55.1,64.7,54.8,66.2,55"/>
				<path class="st3" d="M59.2,60.7l4.7,0.3c0.9,0.1,1.2,1.3,0.5,1.9l-1.4,1.1c-1.2,0.9-2.7,1.3-4.1,1.3l-4.7-0.3
					c-0.9-0.1-1.2-1.3-0.5-1.9l1.4-1.1C56.3,61,57.7,60.6,59.2,60.7"/>
				<path class="st3" d="M52.6,66.8h4.7c0.9,0,1.3,1.2,0.6,1.8l-1.3,1.2c-1.1,1-2.6,1.5-4,1.5h-4.7c-0.9,0-1.3-1.2-0.6-1.8l1.3-1.2
					C49.7,67.3,51.1,66.8,52.6,66.8"/>
				<path class="st3" d="M46.5,73.4l4.7-0.3c0.9-0.1,1.4,1.1,0.7,1.8l-1.3,1.3c-1.1,1.1-2.5,1.7-3.9,1.8L42,78.2
					c-0.9,0.1-1.4-1.1-0.7-1.8l1.3-1.3C43.6,74.1,45,73.5,46.5,73.4"/>
				<path class="st3" d="M40.9,80.4l4.6-0.6c0.9-0.1,1.4,1,0.8,1.7l-1.2,1.3c-1,1.1-2.3,1.9-3.8,2.1l-4.6,0.7
					c-0.9,0.1-1.5-1-0.9-1.7l1.2-1.3C38.1,81.3,39.4,80.6,40.9,80.4"/>
				<path class="st3" d="M35.7,87.7l4.6-1c0.9-0.2,1.5,0.9,1,1.7l-1.1,1.4c-0.9,1.2-2.2,2-3.6,2.3l-4.6,1c-0.9,0.2-1.5-0.9-1-1.6
					l1.1-1.4C33,88.9,34.3,88,35.7,87.7"/>
				<path class="st3" d="M31.1,95.4l4.5-1.3c0.9-0.2,1.6,0.8,1.1,1.6l-1,1.5c-0.8,1.3-2.1,2.2-3.5,2.6l-4.5,1.3
					c-0.9,0.2-1.6-0.8-1.1-1.6l1-1.5C28.4,96.8,29.7,95.8,31.1,95.4"/>
				<path class="st3" d="M27,103.4l4.4-1.6c0.8-0.3,1.6,0.7,1.2,1.5l-0.9,1.6c-0.7,1.3-1.9,2.3-3.3,2.8l-4.4,1.6
					c-0.8,0.3-1.6-0.7-1.2-1.5l0.9-1.6C24.5,104.9,25.6,104,27,103.4"/>
				<path class="st3" d="M23.5,111.7l4.3-1.9c0.8-0.4,1.7,0.6,1.3,1.4l-0.8,1.6c-0.6,1.4-1.7,2.4-3.1,3l-4.3,1.9
					c-0.8,0.4-1.7-0.6-1.3-1.4l0.8-1.6C21.1,113.4,22.2,112.3,23.5,111.7"/>
				<path class="st3" d="M20.6,120.2l4.1-2.2c0.8-0.4,1.7,0.5,1.4,1.3l-0.6,1.7c-0.5,1.4-1.6,2.6-2.9,3.2l-4.1,2.2
					c-0.8,0.4-1.7-0.5-1.4-1.3l0.6-1.7C18.3,122.1,19.3,120.9,20.6,120.2"/>
				<path class="st3" d="M18.3,128.9l4-2.5c0.8-0.5,1.7,0.3,1.5,1.2l-0.5,1.7c-0.5,1.4-1.4,2.7-2.6,3.4l-4,2.5
					c-0.8,0.5-1.7-0.3-1.5-1.2l0.5-1.7C16.1,130.9,17,129.7,18.3,128.9"/>
				<path class="st3" d="M16.6,137.7l3.8-2.8c0.7-0.5,1.8,0.2,1.6,1.1l-0.4,1.7c-0.3,1.5-1.2,2.8-2.4,3.6l-3.8,2.7
					c-0.7,0.5-1.8-0.2-1.6-1.1l0.4-1.7C14.5,139.9,15.4,138.6,16.6,137.7"/>
				<path class="st3" d="M15.5,146.6l3.6-3c0.7-0.6,1.8,0.1,1.6,1l-0.3,1.8c-0.2,1.5-1,2.8-2.1,3.8l-3.6,3c-0.7,0.6-1.8-0.1-1.6-1
					l0.3-1.8C13.6,148.9,14.3,147.6,15.5,146.6"/>
				<path class="st3" d="M15,155.6l3.4-3.3c0.6-0.6,1.8,0,1.7,0.9l-0.2,1.8c-0.1,1.5-0.8,2.9-1.8,3.9l-3.4,3.3
					c-0.6,0.6-1.8,0-1.7-0.9l0.2-1.8C13.3,158,13.9,156.6,15,155.6"/>
				<path class="st3" d="M15.2,164.6l3.1-3.5c0.6-0.7,1.8-0.2,1.8,0.8l0,1.8c0,1.5-0.6,2.9-1.6,4l-3.1,3.5c-0.6,0.7-1.8,0.1-1.7-0.8
					l0-1.8C13.6,167.1,14.2,165.7,15.2,164.6"/>
				<path class="st3" d="M16,173.6l2.9-3.7c0.6-0.7,1.8-0.3,1.8,0.6l0.1,1.8c0.1,1.5-0.4,3-1.3,4.1l-2.9,3.7
					c-0.5,0.7-1.8,0.3-1.8-0.7l-0.1-1.8C14.6,176.2,15.1,174.7,16,173.6"/>
				<path class="st3" d="M17.4,182.4l2.6-3.9c0.5-0.8,1.7-0.4,1.8,0.5l0.2,1.8c0.2,1.5-0.2,3-1,4.2l-2.6,3.9
					c-0.5,0.7-1.7,0.4-1.8-0.5l-0.2-1.8C16.2,185.1,16.6,183.7,17.4,182.4"/>
				<path class="st3" d="M19.4,191.2l2.3-4.1c0.5-0.8,1.7-0.5,1.9,0.4l0.3,1.7c0.3,1.5,0,3-0.7,4.3l-2.3,4.1
					c-0.5,0.8-1.7,0.5-1.9-0.4l-0.3-1.7C18.4,194,18.7,192.5,19.4,191.2"/>
				<path class="st3" d="M22.1,199.8l2.1-4.2c0.4-0.8,1.7-0.6,1.9,0.3l0.5,1.7c0.4,1.5,0.2,3-0.4,4.3l-2.1,4.2
					c-0.4,0.8-1.7,0.6-1.9-0.3l-0.5-1.7C21.3,202.6,21.4,201.1,22.1,199.8"/>
				<path class="st3" d="M25.3,208.2l1.8-4.3c0.3-0.8,1.6-0.8,1.9,0.1l0.6,1.7c0.5,1.4,0.5,3-0.1,4.3l-1.8,4.3
					c-0.3,0.8-1.6,0.7-1.9-0.1l-0.6-1.7C24.7,211.1,24.7,209.5,25.3,208.2"/>
				<path class="st3" d="M29.1,216.3l1.4-4.4c0.3-0.9,1.6-0.9,1.9,0l0.7,1.6c0.6,1.4,0.7,2.9,0.2,4.3l-1.4,4.5
					c-0.3,0.9-1.6,0.9-1.9,0l-0.7-1.6C28.7,219.2,28.6,217.7,29.1,216.3"/>
				<path class="st3" d="M33.5,224.2l1.1-4.5c0.2-0.9,1.5-1,1.9-0.1l0.8,1.6c0.7,1.4,0.9,2.9,0.5,4.3l-1.1,4.5
					c-0.2,0.9-1.5,1-1.9,0.1l-0.8-1.6C33.3,227.1,33.1,225.6,33.5,224.2"/>
				<path class="st3" d="M38.4,231.7l0.8-4.6c0.2-0.9,1.4-1.1,1.9-0.3l0.9,1.5c0.8,1.3,1.1,2.8,0.8,4.2l-0.8,4.6
					c-0.2,0.9-1.4,1.1-1.9,0.3l-0.9-1.5C38.4,234.6,38.1,233.1,38.4,231.7"/>
				<path class="st3" d="M43.8,238.9l0.5-4.7c0.1-0.9,1.3-1.2,1.9-0.4l1,1.5c0.9,1.2,1.3,2.7,1.1,4.2l-0.5,4.7
					c-0.1,0.9-1.3,1.2-1.9,0.4l-1-1.5C44,241.8,43.6,240.3,43.8,238.9"/>
				<path class="st3" d="M49.7,245.6l0.2-4.7c0-0.9,1.3-1.3,1.8-0.5l1.1,1.4c0.9,1.2,1.4,2.6,1.4,4.1l-0.2,4.7
					c0,0.9-1.3,1.3-1.8,0.5l-1.1-1.4C50.1,248.6,49.6,247.1,49.7,245.6"/>
				<path class="st3" d="M56,252l-0.2-4.7c0-0.9,1.2-1.3,1.8-0.7l1.2,1.3c1,1.1,1.6,2.5,1.7,4l0.2,4.7c0,0.9-1.2,1.3-1.8,0.7
					l-1.2-1.3C56.7,254.9,56.1,253.5,56,252"/>
				<path class="st3" d="M62.8,257.9l-0.5-4.7c-0.1-0.9,1.1-1.4,1.7-0.8l1.3,1.2c1.1,1,1.8,2.4,1.9,3.9l0.5,4.7
					c0.1,0.9-1.1,1.4-1.7,0.8l-1.3-1.2C63.7,260.7,63,259.3,62.8,257.9"/>
				<path class="st3" d="M70,263.3l-0.8-4.6c-0.2-0.9,1-1.5,1.7-0.9l1.4,1.1c1.2,1,1.9,2.3,2.2,3.7l0.8,4.6c0.2,0.9-1,1.5-1.7,0.9
					l-1.4-1.1C71.1,266,70.3,264.7,70,263.3"/>
				<path class="st3" d="M77.6,268.2l-1.1-4.5c-0.2-0.9,0.9-1.6,1.6-1l1.5,1c1.2,0.9,2.1,2.1,2.5,3.6l1.1,4.5c0.2,0.9-0.9,1.6-1.6,1
					l-1.5-1C78.8,270.8,77.9,269.6,77.6,268.2"/>
				<path class="st3" d="M85.4,272.5l-1.4-4.5c-0.3-0.9,0.7-1.6,1.5-1.1l1.5,0.9c1.3,0.8,2.3,2,2.7,3.4l1.4,4.5
					c0.3,0.8-0.8,1.6-1.6,1.1l-1.5-0.9C86.8,275.1,85.9,273.9,85.4,272.5"/>
				<path class="st3" d="M93.6,276.3l-1.8-4.3c-0.3-0.8,0.6-1.7,1.5-1.2l1.6,0.8c1.4,0.7,2.4,1.8,2.9,3.2l1.8,4.3
					c0.3,0.8-0.6,1.7-1.5,1.2l-1.6-0.8C95.2,278.8,94.1,277.7,93.6,276.3"/>
				<path class="st3" d="M102,279.5l-2.1-4.2c-0.4-0.8,0.5-1.7,1.4-1.3l1.6,0.7c1.4,0.6,2.5,1.6,3.2,3l2.1,4.2
					c0.4,0.8-0.5,1.7-1.4,1.3l-1.6-0.7C103.7,281.9,102.6,280.8,102,279.5"/>
				<path class="st3" d="M110.6,282.1l-2.3-4.1c-0.5-0.8,0.4-1.7,1.3-1.4l1.7,0.6c1.4,0.5,2.6,1.5,3.4,2.7l2.3,4.1
					c0.5,0.8-0.4,1.7-1.3,1.4l-1.7-0.6C112.5,284.4,111.3,283.4,110.6,282.1"/>
				<path class="st3" d="M119.3,284.1l-2.6-3.9c-0.5-0.8,0.3-1.8,1.2-1.5l1.7,0.5c1.5,0.4,2.7,1.3,3.5,2.5l2.6,3.9
					c0.5,0.7-0.3,1.8-1.2,1.5l-1.7-0.5C121.4,286.2,120.2,285.4,119.3,284.1"/>
				<path class="st3" d="M128.2,285.5l-2.9-3.7c-0.6-0.7,0.2-1.8,1.1-1.6l1.7,0.3c1.5,0.3,2.8,1.1,3.7,2.2l2.9,3.7
					c0.5,0.7-0.2,1.8-1.1,1.6l-1.7-0.3C130.4,287.5,129.1,286.7,128.2,285.5"/>
				<path class="st3" d="M137.2,286.3l-3.1-3.5c-0.6-0.7,0-1.8,1-1.7l1.8,0.2c1.5,0.2,2.9,0.9,3.9,2l3.1,3.5c0.6,0.7,0,1.8-1,1.7
					l-1.8-0.2C139.5,288.1,138.2,287.4,137.2,286.3"/>
				<path class="st3" d="M146.2,286.5l-3.4-3.3c-0.6-0.6-0.1-1.8,0.8-1.7l1.8,0.1c1.5,0.1,2.9,0.7,4,1.7l3.4,3.3
					c0.6,0.6,0.1,1.8-0.8,1.7l-1.8-0.1C148.6,288.1,147.2,287.5,146.2,286.5"/>
				<path class="st3" d="M155.1,286l-3.6-3c-0.7-0.6-0.2-1.8,0.7-1.8l1.8,0c1.5,0,3,0.5,4.1,1.4l3.6,3c0.7,0.6,0.2,1.8-0.7,1.8
					l-1.8,0C157.7,287.4,156.3,286.9,155.1,286"/>
				<path class="st3" d="M164.1,284.9l-3.8-2.8c-0.7-0.5-0.3-1.7,0.6-1.8l1.8-0.1c1.5-0.1,3,0.3,4.2,1.1l3.8,2.7
					c0.7,0.5,0.3,1.7-0.6,1.8l-1.8,0.2C166.7,286.1,165.3,285.7,164.1,284.9"/>
				<path class="st3" d="M172.9,283.2l-4-2.5c-0.8-0.5-0.5-1.7,0.5-1.8l1.8-0.3c1.5-0.2,3,0.1,4.2,0.8l4,2.5
					c0.8,0.5,0.5,1.7-0.5,1.9l-1.8,0.3C175.6,284.2,174.1,283.9,172.9,283.2"/>
				<path class="st3" d="M181.6,280.8l-4.1-2.2c-0.8-0.4-0.6-1.7,0.3-1.9l1.7-0.4c1.5-0.3,3-0.1,4.3,0.5l4.1,2.2
					c0.8,0.4,0.6,1.7-0.3,1.9l-1.7,0.4C184.4,281.7,182.9,281.5,181.6,280.8"/>
				<path class="st3" d="M190.1,277.9l-4.3-1.9c-0.8-0.4-0.7-1.6,0.2-1.9l1.7-0.5c1.4-0.4,3-0.4,4.3,0.2l4.3,1.9
					c0.8,0.4,0.7,1.6-0.2,1.9l-1.7,0.5C192.9,278.6,191.4,278.5,190.1,277.9"/>
				<path class="st3" d="M198.3,274.4l-4.4-1.6c-0.8-0.3-0.8-1.6,0.1-1.9l1.7-0.6c1.4-0.5,2.9-0.6,4.3-0.1l4.4,1.6
					c0.8,0.3,0.8,1.6-0.1,1.9l-1.7,0.6C201.2,274.8,199.7,274.9,198.3,274.4"/>
				<path class="st3" d="M206.3,270.3l-4.5-1.3c-0.9-0.2-0.9-1.5-0.1-1.9l1.6-0.7c1.4-0.6,2.9-0.8,4.3-0.4l4.5,1.3
					c0.9,0.2,0.9,1.5,0.1,1.9l-1.6,0.7C209.3,270.6,207.8,270.7,206.3,270.3"/>
				<path class="st3" d="M214,265.6l-4.6-1c-0.9-0.2-1-1.5-0.2-1.9l1.6-0.9c1.3-0.7,2.8-1,4.3-0.7l4.6,1c0.9,0.2,1,1.5,0.2,1.9
					l-1.6,0.9C217,265.7,215.5,265.9,214,265.6"/>
				<path class="st3" d="M221.4,260.5l-4.6-0.7c-0.9-0.1-1.1-1.4-0.3-1.9l1.5-1c1.3-0.8,2.8-1.2,4.2-1l4.6,0.7
					c0.9,0.1,1.1,1.4,0.3,1.9l-1.5,1C224.3,260.3,222.9,260.7,221.4,260.5"/>
				<path class="st3" d="M228.4,254.8l-4.7-0.3c-0.9-0.1-1.2-1.3-0.5-1.9l1.4-1.1c1.2-0.9,2.7-1.3,4.1-1.2l4.7,0.3
					c0.9,0.1,1.2,1.3,0.5,1.9l-1.4,1.1C231.3,254.5,229.8,254.9,228.4,254.8"/>
			</g>
		</g>
		<polygon class="st4" points="131.7,56.4 139.2,51 136.3,42.2 143.7,47.7 151.2,42.2 148.3,50.9 155.8,56.4 146.6,56.3 143.8,65.1 
			141,56.4 		"/>
		<polygon class="st4" points="93.9,68.7 98.7,60.9 92.7,53.9 101.6,56.1 106.4,48.2 107.1,57.3 116.1,59.5 107.6,62.9 108.4,72.2 
			102.4,65.2 		"/>
		<polygon class="st4" points="63.6,94.6 65.1,85.5 56.8,81.3 65.9,79.9 67.3,70.8 71.5,79 80.6,77.5 74.1,84 78.3,92.2 70.1,88 		
			"/>
		<polygon class="st4" points="45.5,130.1 43.4,121.1 34.2,120.4 42.1,115.7 39.9,106.7 46.8,112.7 54.7,107.8 51.2,116.3 
			58.2,122.3 49.1,121.5 		"/>
		<polygon class="st4" points="42.4,169.8 37.1,162.3 28.3,165.2 33.7,157.8 28.2,150.3 37,153.2 42.4,145.7 42.4,154.9 51.2,157.7 
			42.4,160.5 		"/>
		<polygon class="st4" points="54.8,207.7 47,202.8 39.9,208.8 42.1,199.9 34.2,195.1 43.4,194.4 45.5,185.4 49,193.9 58.2,193.2 
			51.2,199.1 		"/>
		<polygon class="st4" points="80.6,237.9 71.6,236.4 67.4,244.7 66,235.6 56.8,234.2 65,230.1 63.6,220.9 70,227.4 78.3,223.2 
			74.1,231.4 		"/>
		<polygon class="st4" points="116.1,256 107.2,258.1 106.5,267.3 101.7,259.5 92.7,261.6 98.7,254.7 93.9,246.8 102.3,250.4 
			108.3,243.3 107.6,252.5 		"/>
		<polygon class="st4" points="155.8,259.1 148.4,264.5 151.3,273.3 143.8,267.8 136.4,273.3 139.2,264.6 131.7,259.1 140.9,259.2 
			143.8,250.4 146.6,259.1 		"/>
		<polygon class="st4" points="193.7,246.8 188.9,254.6 194.9,261.6 186,259.4 181.1,267.3 180.5,258.2 171.5,256 180,252.5 
			179.2,243.3 185.1,250.3 		"/>
		<polygon class="st4" points="224,220.9 222.5,230 230.7,234.1 221.7,235.5 220.2,244.7 216.1,236.5 207,238 213.5,231.5 
			209.3,223.2 217.4,227.5 		"/>
		<polygon class="st4" points="242,185.4 244.1,194.3 253.4,195 245.5,199.8 247.7,208.8 240.7,202.8 232.8,207.7 236.4,199.2 
			229.3,193.2 238.5,194 		"/>
		<polygon class="st4" points="245.1,145.7 250.5,153.2 259.3,150.3 253.9,157.7 259.3,165.2 250.6,162.3 245.2,169.8 245.2,160.6 
			236.4,157.8 245.1,155 		"/>
		<polygon class="st4" points="232.8,107.8 240.6,112.7 247.6,106.6 245.5,115.6 253.4,120.4 244.2,121.1 242.1,130.1 238.6,121.6 
			229.4,122.3 236.4,116.4 		"/>
		<polygon class="st4" points="206.9,77.6 216,79 220.2,70.8 221.6,79.9 230.7,81.3 222.5,85.4 224,94.6 217.5,88 209.3,92.3 
			213.5,84.1 		"/>
		<polygon class="st4" points="171.4,59.5 180.4,57.4 181.1,48.2 185.8,56 194.9,53.8 188.9,60.8 193.7,68.7 185.2,65.1 179.2,72.2 
			180,63 		"/>
	</g>
	<path class="st3" d="M143.8,245.1c-48.2,0-87.4-39.2-87.4-87.4c0-48.2,39.2-87.4,87.4-87.4s87.4,39.2,87.4,87.4
		C231.2,205.9,192,245.1,143.8,245.1 M143.8,72.9c-46.8,0-84.8,38.1-84.8,84.8c0,46.8,38.1,84.8,84.8,84.8
		c46.8,0,84.8-38.1,84.8-84.8C228.6,111,190.6,72.9,143.8,72.9"/>
	<g>
		<g>
			<polygon class="st4" points="125.6,101.4 143.6,83.5 161.6,101.5 137,126.1 132.4,121.6 152.4,101.5 143.6,92.6 134.9,101.5 
				141.9,108.7 137.4,113.4 125.6,101.4 			"/>
			<polygon class="st4" points="98.4,128.9 116.5,110.8 141.2,135.9 136.6,140.4 116.4,119.9 107.6,128.9 114.7,136.1 110.1,140.8 
				98.4,128.9 			"/>
			<polygon class="st4" points="171.2,110.8 189.2,128.9 164.3,153.8 159.7,149.2 180.2,128.8 171.2,120 164.1,127.1 159.4,122.6 
				171.2,110.8 			"/>
			<polygon class="st4" points="116.3,173.5 98.2,155.4 123.2,130.6 127.7,135.2 107.3,155.5 116.3,164.4 123.4,157.2 128,161.8 
				116.3,173.5 			"/>
			<polygon class="st4" points="188.7,155.5 170.7,173.6 146,148.6 150.6,144.1 170.8,164.6 179.6,155.5 172.5,148.4 177.1,143.7 
				188.7,155.5 			"/>
			<polygon class="st4" points="133.4,148.9 150.6,131.6 155.1,136.2 138,153.5 133.4,148.9 			"/>
			<polygon class="st4" points="163.4,139.1 146.2,121.7 150.7,117.2 168,134.5 163.4,139.1 			"/>
			<polygon class="st4" points="119.7,148.3 124.4,143.9 142.4,162 142.4,201.4 136.1,207.7 131.5,203.1 135.9,198.7 135.9,164.8 
				119.7,148.3 			"/>
			<polygon class="st4" points="150.9,157.5 155.5,162 151.8,165.8 151.8,199.2 171.3,218.7 180.2,209.7 171.3,200.9 164.9,207.5 
				160.3,202.8 171.4,191.8 189.3,209.8 171.4,227.8 145.4,201.9 145.4,163 150.9,157.5 			"/>
			<polygon class="st4" points="98.4,209.8 116.4,191.8 143.9,219.3 151.4,211.7 155.9,216.4 143.9,228.5 116.3,200.7 107.6,209.7 
				116.5,218.7 123.4,211.7 127.8,216.5 116.4,227.9 98.4,209.8 			"/>
		</g>
	</g>
</g>
</svg>
